<?xml version="1.0" encoding="UTF-8" standalone="no"?>
<svg
   xmlns:dc="http://purl.org/dc/elements/1.1/"
   xmlns:cc="http://creativecommons.org/ns#"
   xmlns:rdf="http://www.w3.org/1999/02/22-rdf-syntax-ns#"
   xmlns:svg="http://www.w3.org/2000/svg"
   xmlns="http://www.w3.org/2000/svg"
   xmlns:xlink="http://www.w3.org/1999/xlink"
   xmlns:sodipodi="http://sodipodi.sourceforge.net/DTD/sodipodi-0.dtd"
   xmlns:inkscape="http://www.inkscape.org/namespaces/inkscape"
   width="674.48883pt"
   height="506.48322pt"
   viewBox="0 0 674.48883 506.48322"
   version="1.1"
   id="svg902"
   sodipodi:docname="rhealpix_world_level_0.svg"
   inkscape:version="1.0.2-2 (e86c870879, 2021-01-15)">
  <sodipodi:namedview
     pagecolor="#ffffff"
     bordercolor="#666666"
     borderopacity="1"
     objecttolerance="10"
     gridtolerance="10"
     guidetolerance="10"
     inkscape:pageopacity="0"
     inkscape:pageshadow="2"
     inkscape:window-width="2560"
     inkscape:window-height="1369"
     id="namedview904"
     showgrid="false"
     fit-margin-top="0"
     fit-margin-left="0"
     fit-margin-right="0"
     fit-margin-bottom="0"
     inkscape:zoom="0.81611908"
     inkscape:cx="387.35181"
     inkscape:cy="307.59704"
     inkscape:window-x="-8"
     inkscape:window-y="-8"
     inkscape:window-maximized="1"
     inkscape:current-layer="svg902" />
  <metadata
     id="metadata2">
    <rdf:RDF>
      <cc:Work>
        <dc:type
           rdf:resource="http://purl.org/dc/dcmitype/StillImage" />
        <dc:date>2025-03-11T16:43:28.065521</dc:date>
        <dc:format>image/svg+xml</dc:format>
        <dc:creator>
          <cc:Agent>
            <dc:title>Matplotlib v3.7.0, https://matplotlib.org/</dc:title>
          </cc:Agent>
        </dc:creator>
        <dc:title></dc:title>
      </cc:Work>
    </rdf:RDF>
  </metadata>
  <defs
     id="defs6">
    <style
       type="text/css"
       id="style4">*{stroke-linejoin: round; stroke-linecap: butt}</style>
  </defs>
  <g
     id="LineCollection_1"
     transform="translate(-400.76399,-110.36678)">
    <path
       d="m 485.99999,195.60279 v 0"
       clip-path="url(#pdcfac218a3)"
       style="fill:none;stroke:#bfbfbf;stroke-width:1.5"
       id="path11" />
    <path
       d="m 467.98784,213.61493 h 35.95239 l 0.0719,-0.50333 v -35.37715 l -0.14381,-0.14381 -35.88049,0.0719 v 35.66477 0"
       clip-path="url(#pdcfac218a3)"
       style="fill:none;stroke:#bfbfbf;stroke-width:1.5"
       id="path13" />
    <path
       d="m 450.12341,231.47937 h 71.60994 l 0.14322,-0.42966 v -71.03706 l -0.28644,-0.28644 h -71.03706 l -0.42966,0.14322 v 71.03706 0"
       clip-path="url(#pdcfac218a3)"
       style="fill:none;stroke:#bfbfbf;stroke-width:1.5"
       id="path15" />
    <path
       d="m 432.55148,249.0513 h 106.68366 l 0.21336,-0.6401 V 142.58101 l -0.42673,-0.42674 H 433.19158 l -0.6401,0.21337 v 105.83019 0"
       clip-path="url(#pdcfac218a3)"
       style="fill:none;stroke:#bfbfbf;stroke-width:1.5"
       id="path17" />
    <path
       d="m 415.41134,266.19144 h 140.89552 l 0.28179,-0.84537 V 125.57771 l -0.56359,-0.56358 H 416.25671 l -0.84537,0.28179 v 139.76836 0"
       clip-path="url(#pdcfac218a3)"
       style="fill:none;stroke:#bfbfbf;stroke-width:1.5"
       id="path19" />
    <path
       d="m 401.99719,282.82743 h 670.68101 v 0"
       clip-path="url(#pdcfac218a3)"
       style="fill:none;stroke:#bfbfbf;stroke-width:1.5"
       id="path21" />
    <path
       d="m 401.99719,300.81782 h 670.68101 v 0"
       clip-path="url(#pdcfac218a3)"
       style="fill:none;stroke:#bfbfbf;stroke-width:1.5"
       id="path23" />
    <path
       d="m 401.99719,320.68264 h 670.68101 v 0"
       clip-path="url(#pdcfac218a3)"
       style="fill:none;stroke:#bfbfbf;stroke-width:1.5"
       id="path25" />
    <path
       d="m 401.99719,341.82286 h 670.68101 v 0"
       clip-path="url(#pdcfac218a3)"
       style="fill:none;stroke:#bfbfbf;stroke-width:1.5"
       id="path27" />
    <path
       d="m 401.99719,363.60839 h 670.68101 v 0"
       clip-path="url(#pdcfac218a3)"
       style="fill:none;stroke:#bfbfbf;stroke-width:1.5"
       id="path29" />
    <path
       d="m 401.99719,385.39392 h 670.68101 v 0"
       clip-path="url(#pdcfac218a3)"
       style="fill:none;stroke:#bfbfbf;stroke-width:1.5"
       id="path31" />
    <path
       d="m 401.99719,406.53415 h 670.68101 v 0"
       clip-path="url(#pdcfac218a3)"
       style="fill:none;stroke:#bfbfbf;stroke-width:1.5"
       id="path33" />
    <path
       d="m 401.99719,426.39896 h 670.68101 v 0"
       clip-path="url(#pdcfac218a3)"
       style="fill:none;stroke:#bfbfbf;stroke-width:1.5"
       id="path35" />
    <path
       d="m 401.99719,444.38935 h 670.68101 v 0"
       clip-path="url(#pdcfac218a3)"
       style="fill:none;stroke:#bfbfbf;stroke-width:1.5"
       id="path37" />
    <path
       d="m 415.41134,461.02534 h 140.89552 l 0.28179,0.84538 v 139.76835 l -0.56359,0.56358 H 416.25671 l -0.84537,-0.28179 v -139.76835 0"
       clip-path="url(#pdcfac218a3)"
       style="fill:none;stroke:#bfbfbf;stroke-width:1.5"
       id="path39" />
    <path
       d="m 432.55148,478.16548 h 106.68366 l 0.21336,0.64011 v 105.83019 l -0.42673,0.42673 H 433.19158 l -0.6401,-0.21337 v -105.83019 0"
       clip-path="url(#pdcfac218a3)"
       style="fill:none;stroke:#bfbfbf;stroke-width:1.5"
       id="path41" />
    <path
       d="m 450.12341,495.73742 h 71.60994 l 0.14322,0.42966 v 71.03706 l -0.28644,0.28644 h -71.03706 l -0.42966,-0.14322 v -71.03706 0"
       clip-path="url(#pdcfac218a3)"
       style="fill:none;stroke:#bfbfbf;stroke-width:1.5"
       id="path43" />
    <path
       d="m 467.98784,513.60185 h 35.95239 l 0.0719,0.50333 v 35.37716 l -0.14381,0.1438 -35.88049,-0.0719 v -35.66477 0"
       clip-path="url(#pdcfac218a3)"
       style="fill:none;stroke:#bfbfbf;stroke-width:1.5"
       id="path45" />
    <path
       d="m 485.99999,531.614 v 0"
       clip-path="url(#pdcfac218a3)"
       style="fill:none;stroke:#bfbfbf;stroke-width:1.5"
       id="path47" />
    <path
       d="m 485.99999,195.60279 -83.54754,83.54754 v 0"
       clip-path="url(#pdcfac218a3)"
       style="fill:none;stroke:#bfbfbf;stroke-width:1.5"
       id="path49" />
    <path
       d="m 401.99719,279.73931 v 167.73816 0"
       clip-path="url(#pdcfac218a3)"
       style="fill:none;stroke:#bfbfbf;stroke-width:1.5"
       id="path51" />
    <path
       d="m 402.45245,448.06645 82.89951,82.89952 v 0"
       clip-path="url(#pdcfac218a3)"
       style="fill:none;stroke:#bfbfbf;stroke-width:1.5"
       id="path53" />
    <path
       d="m 485.99999,195.60279 -64.98142,83.54754 v 0"
       clip-path="url(#pdcfac218a3)"
       style="fill:none;stroke:#bfbfbf;stroke-width:1.5"
       id="path55" />
    <path
       d="m 420.66448,279.73931 v 167.73816 0"
       clip-path="url(#pdcfac218a3)"
       style="fill:none;stroke:#bfbfbf;stroke-width:1.5"
       id="path57" />
    <path
       d="m 421.01857,448.06645 64.4774,82.89952 v 0"
       clip-path="url(#pdcfac218a3)"
       style="fill:none;stroke:#bfbfbf;stroke-width:1.5"
       id="path59" />
    <path
       d="m 485.99999,195.60279 -46.4153,83.54754 v 0"
       clip-path="url(#pdcfac218a3)"
       style="fill:none;stroke:#bfbfbf;stroke-width:1.5"
       id="path61" />
    <path
       d="m 439.33177,279.73931 v 167.73816 0"
       clip-path="url(#pdcfac218a3)"
       style="fill:none;stroke:#bfbfbf;stroke-width:1.5"
       id="path63" />
    <path
       d="m 439.58469,448.06645 46.05528,82.89952 v 0"
       clip-path="url(#pdcfac218a3)"
       style="fill:none;stroke:#bfbfbf;stroke-width:1.5"
       id="path65" />
    <path
       d="m 485.99999,195.60279 -27.84918,83.54754 v 0"
       clip-path="url(#pdcfac218a3)"
       style="fill:none;stroke:#bfbfbf;stroke-width:1.5"
       id="path67" />
    <path
       d="m 457.99906,279.73931 v 167.73816 0"
       clip-path="url(#pdcfac218a3)"
       style="fill:none;stroke:#bfbfbf;stroke-width:1.5"
       id="path69" />
    <path
       d="m 458.15081,448.06645 27.63317,82.89952 v 0"
       clip-path="url(#pdcfac218a3)"
       style="fill:none;stroke:#bfbfbf;stroke-width:1.5"
       id="path71" />
    <path
       d="m 485.99999,195.60279 -9.28306,83.54754 v 0"
       clip-path="url(#pdcfac218a3)"
       style="fill:none;stroke:#bfbfbf;stroke-width:1.5"
       id="path73" />
    <path
       d="m 476.66635,279.73931 v 167.73816 0"
       clip-path="url(#pdcfac218a3)"
       style="fill:none;stroke:#bfbfbf;stroke-width:1.5"
       id="path75" />
    <path
       d="m 476.71693,448.06645 9.21106,82.89952 v 0"
       clip-path="url(#pdcfac218a3)"
       style="fill:none;stroke:#bfbfbf;stroke-width:1.5"
       id="path77" />
    <path
       d="m 485.99999,195.60279 9.28306,83.54754 v 0"
       clip-path="url(#pdcfac218a3)"
       style="fill:none;stroke:#bfbfbf;stroke-width:1.5"
       id="path79" />
    <path
       d="m 495.33364,279.73931 v 167.73816 0"
       clip-path="url(#pdcfac218a3)"
       style="fill:none;stroke:#bfbfbf;stroke-width:1.5"
       id="path81" />
    <path
       d="m 495.28305,448.06645 -9.21105,82.89952 v 0"
       clip-path="url(#pdcfac218a3)"
       style="fill:none;stroke:#bfbfbf;stroke-width:1.5"
       id="path83" />
    <path
       d="m 485.99999,195.60279 27.84918,83.54754 v 0"
       clip-path="url(#pdcfac218a3)"
       style="fill:none;stroke:#bfbfbf;stroke-width:1.5"
       id="path85" />
    <path
       d="m 514.00093,279.73931 v 167.73816 0"
       clip-path="url(#pdcfac218a3)"
       style="fill:none;stroke:#bfbfbf;stroke-width:1.5"
       id="path87" />
    <path
       d="M 513.84917,448.06645 486.216,530.96597 v 0"
       clip-path="url(#pdcfac218a3)"
       style="fill:none;stroke:#bfbfbf;stroke-width:1.5"
       id="path89" />
    <path
       d="m 485.99999,195.60279 46.4153,83.54754 v 0"
       clip-path="url(#pdcfac218a3)"
       style="fill:none;stroke:#bfbfbf;stroke-width:1.5"
       id="path91" />
    <path
       d="m 532.66822,279.73931 v 167.73816 0"
       clip-path="url(#pdcfac218a3)"
       style="fill:none;stroke:#bfbfbf;stroke-width:1.5"
       id="path93" />
    <path
       d="m 532.41529,448.06645 -46.05528,82.89952 v 0"
       clip-path="url(#pdcfac218a3)"
       style="fill:none;stroke:#bfbfbf;stroke-width:1.5"
       id="path95" />
    <path
       d="m 485.99999,195.60279 64.98142,83.54754 v 0"
       clip-path="url(#pdcfac218a3)"
       style="fill:none;stroke:#bfbfbf;stroke-width:1.5"
       id="path97" />
    <path
       d="m 551.3355,279.73931 v 167.73816 0"
       clip-path="url(#pdcfac218a3)"
       style="fill:none;stroke:#bfbfbf;stroke-width:1.5"
       id="path99" />
    <path
       d="m 550.98141,448.06645 -64.4774,82.89952 v 0"
       clip-path="url(#pdcfac218a3)"
       style="fill:none;stroke:#bfbfbf;stroke-width:1.5"
       id="path101" />
    <path
       d="m 485.99999,195.60279 83.54755,83.54754 v 0"
       clip-path="url(#pdcfac218a3)"
       style="fill:none;stroke:#bfbfbf;stroke-width:1.5"
       id="path103" />
    <path
       d="m 570.00279,279.73931 v 167.73816 0"
       clip-path="url(#pdcfac218a3)"
       style="fill:none;stroke:#bfbfbf;stroke-width:1.5"
       id="path105" />
    <path
       d="m 569.54754,448.06645 -82.89952,82.89952 v 0"
       clip-path="url(#pdcfac218a3)"
       style="fill:none;stroke:#bfbfbf;stroke-width:1.5"
       id="path107" />
    <path
       d="m 485.99999,195.60279 83.54755,64.98142 v 0"
       clip-path="url(#pdcfac218a3)"
       style="fill:none;stroke:#bfbfbf;stroke-width:1.5"
       id="path109" />
    <path
       d="m 588.67008,279.73931 v 167.73816 0"
       clip-path="url(#pdcfac218a3)"
       style="fill:none;stroke:#bfbfbf;stroke-width:1.5"
       id="path111" />
    <path
       d="m 569.54754,466.63257 -82.89952,64.4774 v 0"
       clip-path="url(#pdcfac218a3)"
       style="fill:none;stroke:#bfbfbf;stroke-width:1.5"
       id="path113" />
    <path
       d="m 485.99999,195.60279 83.54755,46.4153 v 0"
       clip-path="url(#pdcfac218a3)"
       style="fill:none;stroke:#bfbfbf;stroke-width:1.5"
       id="path115" />
    <path
       d="m 607.33737,279.73931 v 167.73816 0"
       clip-path="url(#pdcfac218a3)"
       style="fill:none;stroke:#bfbfbf;stroke-width:1.5"
       id="path117" />
    <path
       d="m 569.54754,485.1987 -82.89952,46.05528 v 0"
       clip-path="url(#pdcfac218a3)"
       style="fill:none;stroke:#bfbfbf;stroke-width:1.5"
       id="path119" />
    <path
       d="m 485.99999,195.60279 83.54755,27.84918 v 0"
       clip-path="url(#pdcfac218a3)"
       style="fill:none;stroke:#bfbfbf;stroke-width:1.5"
       id="path121" />
    <path
       d="m 626.00466,279.73931 v 167.73816 0"
       clip-path="url(#pdcfac218a3)"
       style="fill:none;stroke:#bfbfbf;stroke-width:1.5"
       id="path123" />
    <path
       d="m 569.54754,503.76482 -82.89952,27.63317 v 0"
       clip-path="url(#pdcfac218a3)"
       style="fill:none;stroke:#bfbfbf;stroke-width:1.5"
       id="path125" />
    <path
       d="m 485.99999,195.60279 83.54755,9.28306 v 0"
       clip-path="url(#pdcfac218a3)"
       style="fill:none;stroke:#bfbfbf;stroke-width:1.5"
       id="path127" />
    <path
       d="m 644.67195,279.73931 v 167.73816 0"
       clip-path="url(#pdcfac218a3)"
       style="fill:none;stroke:#bfbfbf;stroke-width:1.5"
       id="path129" />
    <path
       d="m 569.54754,522.33094 -82.89952,9.21105 v 0"
       clip-path="url(#pdcfac218a3)"
       style="fill:none;stroke:#bfbfbf;stroke-width:1.5"
       id="path131" />
    <path
       d="m 485.99999,195.60279 83.54755,-9.28306 v 0"
       clip-path="url(#pdcfac218a3)"
       style="fill:none;stroke:#bfbfbf;stroke-width:1.5"
       id="path133" />
    <path
       d="m 663.33924,279.73931 v 167.73816 0"
       clip-path="url(#pdcfac218a3)"
       style="fill:none;stroke:#bfbfbf;stroke-width:1.5"
       id="path135" />
    <path
       d="M 569.54754,540.89706 486.64802,531.686 v 0"
       clip-path="url(#pdcfac218a3)"
       style="fill:none;stroke:#bfbfbf;stroke-width:1.5"
       id="path137" />
    <path
       d="m 485.99999,195.60279 83.54755,-27.84919 v 0"
       clip-path="url(#pdcfac218a3)"
       style="fill:none;stroke:#bfbfbf;stroke-width:1.5"
       id="path139" />
    <path
       d="m 682.00653,279.73931 v 167.73816 0"
       clip-path="url(#pdcfac218a3)"
       style="fill:none;stroke:#bfbfbf;stroke-width:1.5"
       id="path141" />
    <path
       d="m 569.54754,559.46318 -82.89952,-27.63317 v 0"
       clip-path="url(#pdcfac218a3)"
       style="fill:none;stroke:#bfbfbf;stroke-width:1.5"
       id="path143" />
    <path
       d="m 485.99999,195.60279 83.54755,-46.41531 v 0"
       clip-path="url(#pdcfac218a3)"
       style="fill:none;stroke:#bfbfbf;stroke-width:1.5"
       id="path145" />
    <path
       d="m 700.67382,279.73931 v 167.73816 0"
       clip-path="url(#pdcfac218a3)"
       style="fill:none;stroke:#bfbfbf;stroke-width:1.5"
       id="path147" />
    <path
       d="m 569.54754,578.0293 -82.89952,-46.05529 v 0"
       clip-path="url(#pdcfac218a3)"
       style="fill:none;stroke:#bfbfbf;stroke-width:1.5"
       id="path149" />
    <path
       d="m 485.99999,195.60279 83.54755,-64.98143 v 0"
       clip-path="url(#pdcfac218a3)"
       style="fill:none;stroke:#bfbfbf;stroke-width:1.5"
       id="path151" />
    <path
       d="m 719.34111,279.73931 v 167.73816 0"
       clip-path="url(#pdcfac218a3)"
       style="fill:none;stroke:#bfbfbf;stroke-width:1.5"
       id="path153" />
    <path
       d="m 569.54754,596.59542 -82.89952,-64.4774 v 0"
       clip-path="url(#pdcfac218a3)"
       style="fill:none;stroke:#bfbfbf;stroke-width:1.5"
       id="path155" />
    <path
       d="m 485.99999,195.60279 83.54755,-83.54755 v 0"
       clip-path="url(#pdcfac218a3)"
       style="fill:none;stroke:#bfbfbf;stroke-width:1.5"
       id="path157" />
    <path
       d="m 738.0084,279.73931 v 167.73816 0"
       clip-path="url(#pdcfac218a3)"
       style="fill:none;stroke:#bfbfbf;stroke-width:1.5"
       id="path159" />
    <path
       d="m 569.54754,615.16154 -82.89952,-82.89951 v 0"
       clip-path="url(#pdcfac218a3)"
       style="fill:none;stroke:#bfbfbf;stroke-width:1.5"
       id="path161" />
    <path
       d="m 485.99999,195.60279 64.98142,-83.54755 v 0"
       clip-path="url(#pdcfac218a3)"
       style="fill:none;stroke:#bfbfbf;stroke-width:1.5"
       id="path163" />
    <path
       d="m 756.67569,279.73931 v 167.73816 0"
       clip-path="url(#pdcfac218a3)"
       style="fill:none;stroke:#bfbfbf;stroke-width:1.5"
       id="path165" />
    <path
       d="m 550.98141,615.16154 -64.4774,-82.89951 v 0"
       clip-path="url(#pdcfac218a3)"
       style="fill:none;stroke:#bfbfbf;stroke-width:1.5"
       id="path167" />
    <path
       d="m 485.99999,195.60279 46.4153,-83.54755 v 0"
       clip-path="url(#pdcfac218a3)"
       style="fill:none;stroke:#bfbfbf;stroke-width:1.5"
       id="path169" />
    <path
       d="m 775.34298,279.73931 v 167.73816 0"
       clip-path="url(#pdcfac218a3)"
       style="fill:none;stroke:#bfbfbf;stroke-width:1.5"
       id="path171" />
    <path
       d="m 532.41529,615.16154 -46.05528,-82.89951 v 0"
       clip-path="url(#pdcfac218a3)"
       style="fill:none;stroke:#bfbfbf;stroke-width:1.5"
       id="path173" />
    <path
       d="m 485.99999,195.60279 27.84918,-83.54755 v 0"
       clip-path="url(#pdcfac218a3)"
       style="fill:none;stroke:#bfbfbf;stroke-width:1.5"
       id="path175" />
    <path
       d="m 794.01027,279.73931 v 167.73816 0"
       clip-path="url(#pdcfac218a3)"
       style="fill:none;stroke:#bfbfbf;stroke-width:1.5"
       id="path177" />
    <path
       d="M 513.84917,615.16154 486.216,532.26203 v 0"
       clip-path="url(#pdcfac218a3)"
       style="fill:none;stroke:#bfbfbf;stroke-width:1.5"
       id="path179" />
    <path
       d="m 485.99999,195.60279 9.28306,-83.54755 v 0"
       clip-path="url(#pdcfac218a3)"
       style="fill:none;stroke:#bfbfbf;stroke-width:1.5"
       id="path181" />
    <path
       d="m 812.67756,279.73931 v 167.73816 0"
       clip-path="url(#pdcfac218a3)"
       style="fill:none;stroke:#bfbfbf;stroke-width:1.5"
       id="path183" />
    <path
       d="M 495.28305,615.16154 486.072,532.26203 v 0"
       clip-path="url(#pdcfac218a3)"
       style="fill:none;stroke:#bfbfbf;stroke-width:1.5"
       id="path185" />
    <path
       d="m 485.99999,195.60279 -9.28306,-83.54755 v 0"
       clip-path="url(#pdcfac218a3)"
       style="fill:none;stroke:#bfbfbf;stroke-width:1.5"
       id="path187" />
    <path
       d="m 831.34485,279.73931 v 167.73816 0"
       clip-path="url(#pdcfac218a3)"
       style="fill:none;stroke:#bfbfbf;stroke-width:1.5"
       id="path189" />
    <path
       d="m 476.71693,615.16154 9.21106,-82.89951 v 0"
       clip-path="url(#pdcfac218a3)"
       style="fill:none;stroke:#bfbfbf;stroke-width:1.5"
       id="path191" />
    <path
       d="m 485.99999,195.60279 -27.84918,-83.54755 v 0"
       clip-path="url(#pdcfac218a3)"
       style="fill:none;stroke:#bfbfbf;stroke-width:1.5"
       id="path193" />
    <path
       d="m 850.01214,279.73931 v 167.73816 0"
       clip-path="url(#pdcfac218a3)"
       style="fill:none;stroke:#bfbfbf;stroke-width:1.5"
       id="path195" />
    <path
       d="m 458.15081,615.16154 27.63317,-82.89951 v 0"
       clip-path="url(#pdcfac218a3)"
       style="fill:none;stroke:#bfbfbf;stroke-width:1.5"
       id="path197" />
    <path
       d="m 485.99999,195.60279 -46.4153,-83.54755 v 0"
       clip-path="url(#pdcfac218a3)"
       style="fill:none;stroke:#bfbfbf;stroke-width:1.5"
       id="path199" />
    <path
       d="m 868.67943,279.73931 v 167.73816 0"
       clip-path="url(#pdcfac218a3)"
       style="fill:none;stroke:#bfbfbf;stroke-width:1.5"
       id="path201" />
    <path
       d="m 439.58469,615.16154 46.05528,-82.89951 v 0"
       clip-path="url(#pdcfac218a3)"
       style="fill:none;stroke:#bfbfbf;stroke-width:1.5"
       id="path203" />
    <path
       d="m 485.99999,195.60279 -64.98142,-83.54755 v 0"
       clip-path="url(#pdcfac218a3)"
       style="fill:none;stroke:#bfbfbf;stroke-width:1.5"
       id="path205" />
    <path
       d="m 887.34672,279.73931 v 167.73816 0"
       clip-path="url(#pdcfac218a3)"
       style="fill:none;stroke:#bfbfbf;stroke-width:1.5"
       id="path207" />
    <path
       d="m 421.01857,615.16154 64.4774,-82.89951 v 0"
       clip-path="url(#pdcfac218a3)"
       style="fill:none;stroke:#bfbfbf;stroke-width:1.5"
       id="path209" />
    <path
       d="m 485.99999,195.60279 -83.54754,-83.54755 v 0"
       clip-path="url(#pdcfac218a3)"
       style="fill:none;stroke:#bfbfbf;stroke-width:1.5"
       id="path211" />
    <path
       d="m 906.01401,279.73931 v 167.73816 0"
       clip-path="url(#pdcfac218a3)"
       style="fill:none;stroke:#bfbfbf;stroke-width:1.5"
       id="path213" />
    <path
       d="m 402.45245,615.16154 82.89951,-82.89951 v 0"
       clip-path="url(#pdcfac218a3)"
       style="fill:none;stroke:#bfbfbf;stroke-width:1.5"
       id="path215" />
    <path
       d="m 485.99999,195.60279 -83.54754,-64.98143 v 0"
       clip-path="url(#pdcfac218a3)"
       style="fill:none;stroke:#bfbfbf;stroke-width:1.5"
       id="path217" />
    <path
       d="m 924.68129,279.73931 v 167.73816 0"
       clip-path="url(#pdcfac218a3)"
       style="fill:none;stroke:#bfbfbf;stroke-width:1.5"
       id="path219" />
    <path
       d="m 402.45245,596.59542 82.89951,-64.4774 v 0"
       clip-path="url(#pdcfac218a3)"
       style="fill:none;stroke:#bfbfbf;stroke-width:1.5"
       id="path221" />
    <path
       d="m 485.99999,195.60279 -83.54754,-46.41531 v 0"
       clip-path="url(#pdcfac218a3)"
       style="fill:none;stroke:#bfbfbf;stroke-width:1.5"
       id="path223" />
    <path
       d="m 943.34858,279.73931 v 167.73816 0"
       clip-path="url(#pdcfac218a3)"
       style="fill:none;stroke:#bfbfbf;stroke-width:1.5"
       id="path225" />
    <path
       d="m 402.45245,578.0293 82.89951,-46.05529 v 0"
       clip-path="url(#pdcfac218a3)"
       style="fill:none;stroke:#bfbfbf;stroke-width:1.5"
       id="path227" />
    <path
       d="M 485.99999,195.60279 402.45245,167.7536 v 0"
       clip-path="url(#pdcfac218a3)"
       style="fill:none;stroke:#bfbfbf;stroke-width:1.5"
       id="path229" />
    <path
       d="m 962.01587,279.73931 v 167.73816 0"
       clip-path="url(#pdcfac218a3)"
       style="fill:none;stroke:#bfbfbf;stroke-width:1.5"
       id="path231" />
    <path
       d="m 402.45245,559.46318 82.89951,-27.63317 v 0"
       clip-path="url(#pdcfac218a3)"
       style="fill:none;stroke:#bfbfbf;stroke-width:1.5"
       id="path233" />
    <path
       d="m 485.99999,195.60279 -83.54754,-9.28306 v 0"
       clip-path="url(#pdcfac218a3)"
       style="fill:none;stroke:#bfbfbf;stroke-width:1.5"
       id="path235" />
    <path
       d="m 980.68316,279.73931 v 167.73816 0"
       clip-path="url(#pdcfac218a3)"
       style="fill:none;stroke:#bfbfbf;stroke-width:1.5"
       id="path237" />
    <path
       d="m 402.45245,540.89706 82.89951,-9.21106 v 0"
       clip-path="url(#pdcfac218a3)"
       style="fill:none;stroke:#bfbfbf;stroke-width:1.5"
       id="path239" />
    <path
       d="m 485.99999,195.60279 -83.54754,9.28306 v 0"
       clip-path="url(#pdcfac218a3)"
       style="fill:none;stroke:#bfbfbf;stroke-width:1.5"
       id="path241" />
    <path
       d="m 999.35045,279.73931 v 167.73816 0"
       clip-path="url(#pdcfac218a3)"
       style="fill:none;stroke:#bfbfbf;stroke-width:1.5"
       id="path243" />
    <path
       d="m 402.45245,522.33094 82.89951,9.21105 v 0"
       clip-path="url(#pdcfac218a3)"
       style="fill:none;stroke:#bfbfbf;stroke-width:1.5"
       id="path245" />
    <path
       d="m 485.99999,195.60279 -83.54754,27.84918 v 0"
       clip-path="url(#pdcfac218a3)"
       style="fill:none;stroke:#bfbfbf;stroke-width:1.5"
       id="path247" />
    <path
       d="m 1018.0177,279.73931 v 167.73816 0"
       clip-path="url(#pdcfac218a3)"
       style="fill:none;stroke:#bfbfbf;stroke-width:1.5"
       id="path249" />
    <path
       d="m 402.45245,503.76482 82.89951,27.63317 v 0"
       clip-path="url(#pdcfac218a3)"
       style="fill:none;stroke:#bfbfbf;stroke-width:1.5"
       id="path251" />
    <path
       d="m 485.99999,195.60279 -83.54754,46.4153 v 0"
       clip-path="url(#pdcfac218a3)"
       style="fill:none;stroke:#bfbfbf;stroke-width:1.5"
       id="path253" />
    <path
       d="m 1036.685,279.73931 v 167.73816 0"
       clip-path="url(#pdcfac218a3)"
       style="fill:none;stroke:#bfbfbf;stroke-width:1.5"
       id="path255" />
    <path
       d="m 402.45245,485.1987 82.89951,46.05528 v 0"
       clip-path="url(#pdcfac218a3)"
       style="fill:none;stroke:#bfbfbf;stroke-width:1.5"
       id="path257" />
    <path
       d="m 485.99999,195.60279 -83.54754,64.98142 v 0"
       clip-path="url(#pdcfac218a3)"
       style="fill:none;stroke:#bfbfbf;stroke-width:1.5"
       id="path259" />
    <path
       d="m 1055.3523,279.73931 v 167.73816 0"
       clip-path="url(#pdcfac218a3)"
       style="fill:none;stroke:#bfbfbf;stroke-width:1.5"
       id="path261" />
    <path
       d="m 402.45245,466.63257 82.89951,64.4774 v 0"
       clip-path="url(#pdcfac218a3)"
       style="fill:none;stroke:#bfbfbf;stroke-width:1.5"
       id="path263" />
    <path
       d="m 485.99999,195.60279 -83.54754,83.54754 v 0"
       clip-path="url(#pdcfac218a3)"
       style="fill:none;stroke:#bfbfbf;stroke-width:1.5"
       id="path265" />
    <path
       d="m 401.99719,279.73931 v 167.73816 0"
       clip-path="url(#pdcfac218a3)"
       style="fill:none;stroke:#bfbfbf;stroke-width:1.5"
       id="path267" />
    <path
       d="m 402.45245,448.06645 82.89951,82.89952 v 0"
       clip-path="url(#pdcfac218a3)"
       style="fill:none;stroke:#bfbfbf;stroke-width:1.5"
       id="path269" />
  </g>
  <g
     id="LineCollection_2"
     transform="translate(-400.76399,-110.36678)">
    <path
       d="m 404.65583,468.94679 -2.65863,-5.136"
       clip-path="url(#pdcfac218a3)"
       style="fill:none;stroke:#000000;stroke-width:2"
       id="path566" />
    <path
       d="m 1057.82,447.61118 2.7565,-2.39176 0.8375,1.39453 1.3276,-0.67226 0.5398,0.70062 -0.8345,0.96887"
       clip-path="url(#pdcfac218a3)"
       style="fill:none;stroke:#000000;stroke-width:2"
       id="path568" />
    <path
       d="m 401.9972,459.18391 2.35692,4.00858 0.79342,0.002 0.64289,3.44438 2.76402,3.67821 1.22007,3.14124 -0.70234,4.00366 -1.84346,-1.94444 -2.57289,-6.57091"
       clip-path="url(#pdcfac218a3)"
       style="fill:none;stroke:#000000;stroke-width:2"
       id="path570" />
    <path
       d="m 447.22305,604.51821 -2.15632,-0.7398 0.12552,-0.3198 0.87774,-0.76669 2.4824,-0.10962 -1.32934,1.93591"
       clip-path="url(#pdcfac218a3)"
       style="fill:none;stroke:#000000;stroke-width:2"
       id="path572" />
    <path
       d="m 830.49272,390.69994 1.55609,6.87674 -1.31512,0.009 0.19033,2.45048 -5.0006,16.51245 -3.14778,1.30948 -2.55702,-1.21654 -1.29563,-4.43654 0.1636,-2.92826 0.85942,-0.35397 1.06537,-3.55354 -0.93582,-4.21271 0.90244,-2.50453 3.48281,-0.91895 2.60014,-2.50755 0.30589,-1.97699 0.79305,0.25584 1.68159,-3.7231 0.65124,0.91908"
       clip-path="url(#pdcfac218a3)"
       style="fill:none;stroke:#000000;stroke-width:2"
       id="path574" />
    <path
       d="m 940.52394,377.63978 0.25505,0.7737 3.57619,0.21674 0.41133,-0.89644 3.46322,1.04574 0.67941,1.40798 5.09012,1.68419 -2.12997,0.82511 -11.73565,-2.13506 -5.43644,-1.98792 1.28088,-2.07931 4.54586,1.14527"
       clip-path="url(#pdcfac218a3)"
       style="fill:none;stroke:#000000;stroke-width:2"
       id="path576" />
    <path
       d="m 967.48085,361.69236 4.31762,-1.19219 -1.49985,2.17144 -1.40291,0.42099 -6.53807,-0.004 -0.26547,1.65712 1.67079,1.9466 4.48884,-1.7364 -0.15338,1.00818 -0.8134,-0.31798 -2.45361,2.13075 3.08768,7.50717 -0.99649,0.64077 -0.73198,-0.7665 0.90195,-1.78624 -2.29627,0.24093 0.24213,-0.84285 -1.34589,-1.28088 0.13852,-2.13036 -1.24499,0.66472 0.23384,5.66942 -1.18383,0.31633 -0.80202,-0.63972 0.24628,-4.11573 -1.36471,-1.51371 1.97543,-6.46992 1.97832,-2.52839 3.81147,0.95008"
       clip-path="url(#pdcfac218a3)"
       style="fill:none;stroke:#000000;stroke-width:2"
       id="path578" />
    <path
       d="m 979.50899,369.74093 2.05405,0.63762 0.67854,1.67121 -5.48062,-1.01615 0.4424,-1.20194 2.30563,-0.0907"
       clip-path="url(#pdcfac218a3)"
       style="fill:none;stroke:#000000;stroke-width:2"
       id="path580" />
    <path
       d="m 988.54234,378.66909 -0.18174,-1.6377 0.72215,-1.51931 0.42001,1.67591 -0.96042,1.4811"
       clip-path="url(#pdcfac218a3)"
       style="fill:none;stroke:#000000;stroke-width:2"
       id="path582" />
    <path
       d="m 973.11745,382.00447 2.59261,-0.0754 -4.1953,2.15473 -1.21817,1.61198 -1.82185,0.21556 0.97073,-2.05045 3.67198,-1.85647"
       clip-path="url(#pdcfac218a3)"
       style="fill:none;stroke:#000000;stroke-width:2"
       id="path584" />
    <path
       d="m 958.76892,381.85343 1.15334,-0.17703 0.46304,0.92084 -4.4547,0.70772 2.16518,-2.02958 0.67314,0.57805"
       clip-path="url(#pdcfac218a3)"
       style="fill:none;stroke:#000000;stroke-width:2"
       id="path586" />
    <path
       d="m 973.49386,430.56746 -3.59731,1.37689 -1.04907,1.70753 -7.03005,0.15666 -3.4884,1.97225 -2.61316,-0.0714 -2.9836,-1.49948 0.0407,-1.04564 1.24335,-0.66744 0.16235,-1.94969 -1.42171,-5.17624 -3.17547,-6.49581 0.82025,0.85084 -0.62982,-1.82899 1.47824,1.33639 -1.5668,-3.7958 0.64034,-3.8433 0.77134,-1.46241 0.14104,1.54756 0.78861,-1.39748 3.85265,-2.30513 7.73686,-2.09504 2.58625,-3.08161 0.13273,-1.96841 1.30635,-1.78263 0.78629,1.81119 0.7944,-0.41785 -0.66475,-0.99132 0.58584,-1.02035 0.82362,0.45587 0.2267,-1.60334 2.43808,-2.82995 2.57621,-0.87728 2.41522,2.23152 2.35541,0.21304 -0.39551,-1.16387 2.25537,-4.01448 3.65413,-0.90392 -0.0338,-1.09556 -1.3674,-0.70686 0.99408,-0.31213 5.49055,2.4027 2.22885,-0.8385 0.85709,1.05972 -1.8478,2.07738 -0.86163,3.5547 8.80155,5.70507 1.23257,-0.71426 0.7442,-2.05585 0.7708,-8.44795 1.5462,-3.73314 2.6262,8.29387 1.1977,-0.80054 1.5139,1.72578 1.8905,8.32799 4.5939,2.95847 1.5493,3.98535 1.9581,0.12139 0.3216,2.14139 3.6506,3.60843 1.3334,5.57483 -1.2655,6.72339 -4.7851,7.37556 -0.6177,3.09846 -3.1598,0.66893 -3.7086,2.11497 -2.6899,-1.06163 0.2898,-0.90197 -2.6549,1.57611 -5.5468,-1.36245 -1.98704,-3.30136 -2.7131,-0.93756 0.16206,-2.21128 -0.9117,1.25073 -1.66095,0.33025 1.98006,-2.93729 -0.14894,-1.3609 -3.39985,3.63155 -1.4576,-0.74396 -1.7441,-3.41027 -5.50232,-2.08869 -9.6652,1.34421"
       clip-path="url(#pdcfac218a3)"
       style="fill:none;stroke:#000000;stroke-width:2"
       id="path588" />
    <path
       d="m 1013.7042,445.74446 1.1197,0.11191 -0.3184,1.75481"
       clip-path="url(#pdcfac218a3)"
       style="fill:none;stroke:#000000;stroke-width:2"
       id="path590" />
    <path
       d="m 401.9972,507.12529 2.09209,0.98206 -0.45069,0.51031 1.14797,1.57342 -0.13994,1.44908 -2.64943,0.72894"
       clip-path="url(#pdcfac218a3)"
       style="fill:none;stroke:#000000;stroke-width:2"
       id="path592" />
    <path
       d="m 1009.2617,447.61118 -1.0559,-2.04066 3.0247,0.72157 2.4737,-0.54763"
       clip-path="url(#pdcfac218a3)"
       style="fill:none;stroke:#000000;stroke-width:2"
       id="path594" />
    <path
       d="m 1068.2063,444.50057 -1.6304,2.04328 -1.4427,0.65771 -1.0988,-0.67062 1.0765,-1.36968 -2.6201,-1.60313 1.4014,-1.21386 0.2281,-2.45333 -3.8473,-5.07734 3.1611,1.32812 1.8802,3.44812 0.039,-1.20191 0.8424,0.4813 0.2793,1.32601 2.7634,0.70606 2.0128,-0.4621 -1.0204,2.53582 -1.4252,-0.0351 -0.5995,1.56065"
       clip-path="url(#pdcfac218a3)"
       style="fill:none;stroke:#000000;stroke-width:2"
       id="path596" />
    <path
       d="m 1070.5206,401.35451 1.106,0.2584 -0.3087,1.08923 -2.1864,0.0286 0.5403,-1.63485 0.8488,0.25862"
       clip-path="url(#pdcfac218a3)"
       style="fill:none;stroke:#000000;stroke-width:2"
       id="path598" />
    <path
       d="m 1049.366,397.49807 -0.2675,-0.58299 -0.039,-1.62171 1.1964,2.35493 -0.8902,-0.15023"
       clip-path="url(#pdcfac218a3)"
       style="fill:none;stroke:#000000;stroke-width:2"
       id="path600" />
    <path
       d="m 1047.4747,408.75197 2.5015,2.2021 -0.7093,0.48712 -2.3627,-1.46464 -2.697,-3.22479 3.2675,2.00021"
       clip-path="url(#pdcfac218a3)"
       style="fill:none;stroke:#000000;stroke-width:2"
       id="path602" />
    <path
       d="m 1001.2176,369.29915 6.6899,2.75704 2.6096,3.50072 3.1102,1.34644 0.4537,1.1542 -1.7178,0.23412 0.4125,1.44816 6.5312,6.90986 -5.185,-0.97447 -3.4806,-4.46113 -2.4348,-0.94864 -2.7213,1.33468 0.2381,1.59707 -1.4663,0.74326 -2.9766,-0.45166 -1.66223,-1.77668 -1.89594,-0.43595 -2.82491,0.68407 1.96781,-2.36766 -1.38284,-4.19315 -7.96152,-4.04801 -1.26737,1.25423 -0.42966,-1.7505 -1.42615,-1.07399 3.1854,-1.32552 -2.73259,-0.004 -3.19736,-2.78992 3.47316,-1.24387 2.9969,0.89906 0.81591,4.35233 1.93202,1.30853 3.70197,-3.6399 6.6446,1.96169"
       clip-path="url(#pdcfac218a3)"
       style="fill:none;stroke:#000000;stroke-width:2"
       id="path604" />
    <path
       d="m 1020.4471,376.37429 -2.9708,1.03596 -2.5966,-1.23983 2.8497,-0.52656 0.5492,-1.09926 0.1814,1.15749 1.0651,-0.16647 1.5688,-1.52393 -0.2054,-1.28631 1.1181,-0.0415 0.3395,1.56911 -1.899,2.12132"
       clip-path="url(#pdcfac218a3)"
       style="fill:none;stroke:#000000;stroke-width:2"
       id="path606" />
    <path
       d="m 1022.9459,371.6161 0.9334,1.83451 -0.5838,0.58149 -0.7864,-2.13249 -3.2555,-2.29135 0.5188,-0.52816 3.1735,2.536"
       clip-path="url(#pdcfac218a3)"
       style="fill:none;stroke:#000000;stroke-width:2"
       id="path608" />
    <path
       d="m 1026.9034,375.28306 2.352,2.61352 -0.2612,0.60893 -1.3311,-0.61781 -1.2187,-3.04262 0.459,0.43798"
       clip-path="url(#pdcfac218a3)"
       style="fill:none;stroke:#000000;stroke-width:2"
       id="path610" />
    <path
       d="m 1036.013,381.11134 0.5178,1.12315 -3.1851,-2.42116 0.2779,-0.2212 2.3894,1.51921"
       clip-path="url(#pdcfac218a3)"
       style="fill:none;stroke:#000000;stroke-width:2"
       id="path612" />
    <path
       d="m 1040.6407,386.43437 0.522,0.73973 -1.3042,-0.0137 -0.7098,-1.325 1.492,0.59894"
       clip-path="url(#pdcfac218a3)"
       style="fill:none;stroke:#000000;stroke-width:2"
       id="path614" />
    <path
       d="m 976.82347,358.84854 1.41101,2.28081 -0.0976,1.91313 -0.96283,-0.2144 -0.0376,2.75065 -1.30769,-4.18525 0.99475,-2.54494"
       clip-path="url(#pdcfac218a3)"
       style="fill:none;stroke:#000000;stroke-width:2"
       id="path616" />
    <path
       d="m 973.91966,345.24999 0.29981,2.65839 -0.6359,1.99004 -0.68201,-2.21663 -0.87283,1.10235 0.061,2.62424 -2.19663,-1.26411 0.0446,-2.60778 -1.18257,-1.02653 -2.84613,2.02863 -0.30908,-0.6361 0.73256,-1.82943 2.19402,-1.42583 0.65983,0.98062 3.04321,-1.61677 -0.11065,-1.67108 1.51317,1.02439 0.28766,1.8856"
       clip-path="url(#pdcfac218a3)"
       style="fill:none;stroke:#000000;stroke-width:2"
       id="path618" />
    <path
       d="m 951.19634,353.70966 4.70619,-5.22617 4.58618,3.30232 -3.4883,4.74492 1.37222,2.07038 -0.32238,1.00658 2.09282,2.0255 -2.21186,0.25827 -0.54176,3.47651 -1.79503,1.49697 -0.76903,5.52176 -0.27483,-0.77703 -2.12071,0.98289 -0.7395,-1.33544 -2.26184,-0.82389 -2.21929,0.78606 -0.68105,-1.0579 -2.76173,-0.13208 -0.28544,-2.93398 -1.82764,-2.48092 -0.0425,-3.94373 1.10907,-1.45434 2.81054,0.34103 0.37563,-1.85222 3.03444,-0.88578 2.25575,-3.10971"
       clip-path="url(#pdcfac218a3)"
       style="fill:none;stroke:#000000;stroke-width:2"
       id="path620" />
    <path
       d="m 932.83888,365.98336 0.96679,2.74767 2.27871,1.57758 -0.5431,6.09101 -2.06697,0.0456 -3.9689,-3.60529 -6.19851,-9.63249 -1.2365,-3.59069 -6.17575,-7.98784 4.0916,0.50903 5.89243,6.87517 1.89767,0.0343 1.56854,1.49902 2.50165,2.83308 -0.74809,1.78755 1.74043,0.8163"
       clip-path="url(#pdcfac218a3)"
       style="fill:none;stroke:#000000;stroke-width:2"
       id="path622" />
    <path
       d="m 942.36894,324.41651 -1.53072,-0.64499 -0.0541,-1.78386 4.03276,-1.46475 0.41722,0.78687 -1.25232,2.10701 -1.61282,0.99972"
       clip-path="url(#pdcfac218a3)"
       style="fill:none;stroke:#000000;stroke-width:2"
       id="path624" />
    <path
       d="m 966.37834,324.35991 0.33358,2.36314 -1.59207,2.44274 0.12328,3.39012 4.14687,1.16103 0.23731,2.65694 -2.14444,-2.16896 -0.4803,0.78246 -1.18856,-1.27544 -2.62464,-0.15568 0.67796,-1.41844 -0.55718,-0.49032 -0.24117,0.76427 -1.20071,-2.13889 1.48393,-6.49626 3.02614,0.58329"
       clip-path="url(#pdcfac218a3)"
       style="fill:none;stroke:#000000;stroke-width:2"
       id="path626" />
    <path
       d="m 959.22433,343.29888 -2.48332,2.05338 4.36296,-6.47739 0.33262,1.75342 -2.21226,2.67059"
       clip-path="url(#pdcfac218a3)"
       style="fill:none;stroke:#000000;stroke-width:2"
       id="path628" />
    <path
       d="m 965.82096,338.77572 -0.28901,-1.02102 2.30852,0.66079 -2.08627,2.45675 0.0668,-2.09652"
       clip-path="url(#pdcfac218a3)"
       style="fill:none;stroke:#000000;stroke-width:2"
       id="path630" />
    <path
       d="m 965.33458,311.7601 -1.12412,3.22384 -0.79999,1.66384 -1.19637,-3.20757 2.59262,-3.47474 0.8516,0.59175 -0.32374,1.20288"
       clip-path="url(#pdcfac218a3)"
       style="fill:none;stroke:#000000;stroke-width:2"
       id="path632" />
    <path
       d="m 1002.8685,284.21698 -1.7269,1.72992 -0.3462,4.09508 -0.97214,1.26194 -5.66679,0.95952 -2.65938,2.07966 -1.25444,-0.70315 -0.0776,-1.35888 -7.64106,1.2919 1.89266,1.34849 -1.24557,3.15725 -1.20679,0.7905 -0.9033,-0.73028 0.45782,-1.68196 -1.94002,-1.8041 5.99082,-3.87897 5.71194,-0.16788 1.95314,-3.14699 1.2447,0.83842 3.80028,-2.42316 1.64156,-5.04468 1.98477,-0.30374 0.9625,3.69111"
       clip-path="url(#pdcfac218a3)"
       style="fill:none;stroke:#000000;stroke-width:2"
       id="path634" />
    <path
       d="m 405.32516,212.83749 0.70055,1.10753 -1.8531,0.82926 -0.45065,-2.6068 -1.63078,-1.30476 1.12176,-3.09669 -1.21574,-0.50928"
       clip-path="url(#pdcfac218a3)"
       style="fill:none;stroke:#000000;stroke-width:2"
       id="path636" />
    <path
       d="m 1001.6708,279.60561 -0.328,0.58033 -2.07615,0.0248 -0.0951,-0.6051"
       clip-path="url(#pdcfac218a3)"
       style="fill:none;stroke:#000000;stroke-width:2"
       id="path638" />
    <path
       d="m 401.9972,204.7575 1.02676,-0.27159 1.26587,0.76246 0.0915,1.92712 3.57876,0.51072 -2.63497,5.15128"
       clip-path="url(#pdcfac218a3)"
       style="fill:none;stroke:#000000;stroke-width:2"
       id="path640" />
    <path
       d="m 421.70215,206.91151 -3.31705,1.0652 -4.69859,3.13997 0.55568,-2.4796 -2.42732,-0.57339 -1.7141,1.93211 -1.16518,0.17263 1.005,-1.47041 -1.28991,-0.90493 8.37071,-1.18441 1.6673,-1.14243 2.32623,-0.21311 0.78557,1.20212 0.79205,-0.69354 0.24023,0.58621 -1.13062,0.56358"
       clip-path="url(#pdcfac218a3)"
       style="fill:none;stroke:#000000;stroke-width:2"
       id="path642" />
    <path
       d="m 451.60089,230.00188 0.47374,-1.43473 0.74123,0.21976"
       clip-path="url(#pdcfac218a3)"
       style="fill:none;stroke:#000000;stroke-width:2"
       id="path644" />
    <path
       d="m 459.64619,203.34626 -0.46795,1.63321 -0.70603,-0.46017 0.86496,-2.32831 0.57896,-0.004 -0.26994,1.15962"
       clip-path="url(#pdcfac218a3)"
       style="fill:none;stroke:#000000;stroke-width:2"
       id="path646" />
    <path
       d="m 461.06085,197.72598 -0.0785,1.47468 -0.94855,2.22218 -1.32742,-0.17937 -0.3725,-3.20887 1.16183,-1.26893 1.22949,0.24788 0.33565,0.71243"
       clip-path="url(#pdcfac218a3)"
       style="fill:none;stroke:#000000;stroke-width:2"
       id="path648" />
    <path
       d="m 466.69723,181.80681 -1.0193,0.41612 -0.72914,-0.61897 -0.69199,-3.18402 2.35552,2.64852 0.0849,0.73835"
       clip-path="url(#pdcfac218a3)"
       style="fill:none;stroke:#000000;stroke-width:2"
       id="path650" />
    <path
       d="m 469.82906,180.78937 0.40596,1.12973 -2.64208,-0.55656 -1.61428,-1.3587 -0.22383,-1.15598 1.2031,-0.88527 1.28822,0.89059 0.35514,-0.19245 1.22777,2.12864"
       clip-path="url(#pdcfac218a3)"
       style="fill:none;stroke:#000000;stroke-width:2"
       id="path652" />
    <path
       d="m 707.66121,322.54904 -0.0391,-2.05699 -1.46648,-1.86296 0.16834,-1.80871 3.51676,-5.31193 1.21224,-3.43838 3.3995,-3.48468 1.73591,-0.21397 3.96513,-3.42719 -0.46651,-2.35375 0.95955,-2.58831 4.45802,-2.83879 1.83416,-2.97354 7.01905,1.05968 6.78898,-2.56104 12.98132,-0.60048 2.03292,-0.70771 1.30673,0.21003 -0.0548,0.88925 1.71622,-0.30991 -0.9334,0.86475 0.63378,1.26435 -0.2458,1.554 -1.22878,0.91011 0.3548,0.99275 9.15809,2.8024 0.87427,1.65966 6.29546,2.09402 1.80507,-1.35997 0.15048,-2.34372 2.63024,-1.121 13.75874,3.68279 3.85188,-1.28874 1.83585,1.16891 0.43322,-0.61471 2.95109,0.55093 1.46165,-1.09197 2.69188,-5.70068 0.28255,-2.11351 -0.68636,-0.80642 0.707,-0.6645 -2.69979,-0.25555 -1.28367,1.01768 -2.8332,0.19959 -1.51124,-0.95055 -3.73275,0.88519 -3.8432,-0.91086 -2.46962,-2.70674 0.90813,-1.33755 -1.18335,-0.81481 2.07064,-1.61426 2.87469,-0.067 0.78407,-1.26601 3.55786,0.21948 4.0343,-1.40208"
       clip-path="url(#pdcfac218a3)"
       style="fill:none;stroke:#000000;stroke-width:2"
       id="path654" />
    <path
       d="m 507.82747,111.6 -0.41882,0.13289 -3.09108,0.0349 L 503.7976,111.6"
       clip-path="url(#pdcfac218a3)"
       style="fill:none;stroke:#000000;stroke-width:2"
       id="path656" />
    <path
       d="m 804.21359,279.60561 5.37951,1.63308 3.78156,-0.1082 2.20395,-0.86391 -0.0681,-0.66097"
       clip-path="url(#pdcfac218a3)"
       style="fill:none;stroke:#000000;stroke-width:2"
       id="path658" />
    <path
       d="m 492.50067,111.6 0.0283,1.16042 8.00186,4.29301 -2.96774,1.65645 0.8482,0.65967 -2.58894,1.04683 7.31731,-1.65265 0.12974,-1.03506 -2.55507,-0.30114 0.4533,-0.59224 4.59996,-1.24525 0.90145,0.33657 -0.58858,0.77857 1.7805,0.48567 -2.19684,0.87097 0.3999,0.38115 4.10689,0.83736 2.78273,-2.57412 1.45513,-0.20148 3.53011,-3.85476 -0.48423,-1.04997"
       clip-path="url(#pdcfac218a3)"
       style="fill:none;stroke:#000000;stroke-width:2"
       id="path660" />
    <path
       d="m 790.55656,279.60561 1.22565,1.4563 -2.21659,0.0916 -2.35396,1.41787 -0.56201,-1.1255 -2.11145,-0.20466 -2.26068,0.43316 1.294,0.94245 -0.94836,0.2747 -2.37759,-0.49598 1.351,1.80583 -0.70362,0.37436 1.96366,1.29162 0.028,0.98051 -1.72675,-0.46082 0.55063,0.88834 -1.18537,0.1836 0.70796,1.55328 -1.23987,0.0221 -1.53072,-0.76794 -1.02669,-2.55518 -3.19949,-3.30601 0.25004,-2.44214 -0.80202,-0.35753"
       clip-path="url(#pdcfac218a3)"
       style="fill:none;stroke:#000000;stroke-width:2"
       id="path662" />
    <path
       d="m 534.32888,111.6 4.11619,2.5793 0.28004,2.59436 0.94737,0.26167 1.02898,-0.71579 -0.87785,1.30907 1.20787,0.24216 1.83258,-0.58974 1.08589,-2.13756 -2.23302,-3.51517 -1.46885,0.0101 0.0287,-0.0384"
       clip-path="url(#pdcfac218a3)"
       style="fill:none;stroke:#000000;stroke-width:2"
       id="path664" />
    <path
       d="m 767.73444,279.60561 -0.0649,0.65203 4.83651,2.28535 -0.34882,0.604 -2.65783,-1.06299 -0.78561,1.08899 1.34917,0.62867 -0.22149,0.89055 -1.7769,1.58052 -0.77819,0.1337 0.79382,-1.81981 -1.29872,-1.84071 -6.17315,-2.75737 -0.56608,-0.38293"
       clip-path="url(#pdcfac218a3)"
       style="fill:none;stroke:#000000;stroke-width:2"
       id="path666" />
    <path
       d="m 547.96897,111.6 1.16074,1.63115 -0.68899,1.62925 1.76048,0.73767 5.94102,-2.04203 3.19518,0.44596 3.13877,-0.53434 1.84832,-1.86766"
       clip-path="url(#pdcfac218a3)"
       style="fill:none;stroke:#000000;stroke-width:2"
       id="path668" />
    <path
       d="m 743.68669,279.60561 -0.004,0.0749 -4.16086,1.44819 -2.03331,2.86816 0.72803,0.97716 -4.21459,3.59352 -4.14871,-0.007 -1.88215,1.29567 -2.13373,-1.76255 -4.44032,0.13036 0.10987,-2.4371 -1.28165,-0.81152 1.41477,-3.4242 -0.60534,-1.9461"
       clip-path="url(#pdcfac218a3)"
       style="fill:none;stroke:#000000;stroke-width:2"
       id="path670" />
    <path
       d="m 570.00278,128.57409 -1.78772,1.97444 -1.1893,-1.6062 0.53686,-11.45597 -0.98971,0.022 -3.30376,2.87515 -2.59628,5.46367 -0.64425,3.11597 -1.22382,1.26474 0.0668,-4.87894 -1.90554,2.33698 0.72301,-2.19586 -3.40874,-0.26121 -1.80471,1.38564 -4.40455,1.14239 -3.56104,2.50244 -5.56941,0.74377 -1.65227,0.8422 -1.13797,2.56485 -2.79543,2.74031 -3.46405,1.07031 1.54024,-1.44963 -0.30275,-0.74318 3.00625,-1.69975 0.77246,-1.49757 -1.10776,-0.39894 0.47443,-0.60707 -2.80796,0.78981 -1.40422,-1.21988 -6.13781,1.87276 -2.41251,-0.72869 -2.94402,1.30987 -1.21136,2.7397 -1.20816,1.08314 -1.50788,0.58978 -0.39056,-1.28961 -1.06086,0.0336 -1.47357,2.34556 1.06266,0.39704 -0.37152,0.9956 -5.84731,0.49992 -1.71175,0.95989 0.93219,0.82681 6.63732,-1.14252 1.04758,1.51961 -1.15324,1.71714 -0.29356,1.57579 -1.0495,1.01899 -5.57831,3.37183 -0.22286,0.74389 0.96254,0.832 1.89416,-0.49866 1.58472,-1.2274 0.41001,-1.07586 5.33934,-2.91643 2.3111,-2.45936 -0.61784,-2.19224 2.26864,-1.95819 1.53103,-0.40536 4.09616,-4.51488 1.51045,0.16614 1.69074,-1.36297 1.63559,-0.079 -1.92673,7.09114 4.01658,-2.00423 2.01219,-0.40548 0.97458,0.88128 -4.39326,5.88278 -9.52625,4.40404 -8.22684,5.85726 -5.94569,3.55324 -3.42214,0.68241 -1.87065,1.47126 -2.84116,0.27545 -1.95146,-1.29988 1.16205,-0.47489 -0.5213,-1.11428 -1.01689,0.61694 -3.22756,-1.49352 -3.54317,-2.84135 0.0418,-1.1748 2.73817,-1.39614 4.66867,1.1156 -1.22347,-1.29064 0.46005,-2.61249 -1.92688,-0.99052 -0.28275,0.85068 0.47224,0.75469 -0.75393,0.66571 -2.25679,-1.09371 -0.89585,0.428 0.52495,1.28767 -2.38155,1.72502 -1.72064,-0.71751 -0.56696,1.21147 0.7407,1.05207 -0.44916,1.07639 0.59646,1.07759 -2.40328,-0.56762 -0.53492,-0.99009 1.12187,-0.21812 -0.0184,-0.98258 -0.73822,-0.60403 -1.40956,0.38258 -0.14643,1.12605 -4.53402,2.36115 -0.65365,-0.0872 0.62978,-1.07389 -4.24595,1.20257 -1.31263,-1.06614 -0.56425,1.17217 1.22197,1.02647 -0.22222,0.58518 -2.59322,-0.53663 -5.42824,-2.57635 -0.0857,0.92581 1.5651,1.31217 1.07612,0.17391 0.14596,0.84075 1.39393,1.95355 -0.47187,3.5793 -2.0808,-0.46996 -0.75528,-0.99068 -0.18839,-1.44313 -1.81684,-1.80846 -1.31085,-2.42996 -1.61335,-1.08511 -0.0999,-3.68713 -1.23479,-0.25962 -0.6202,2.80189 1.17426,1.00525 0.37474,1.16863 1.00874,0.14574 0.82702,0.98567 0.51629,1.78188 1.90796,1.44913 -0.52806,1.19921 0.99991,1.26644 -1.34775,-0.9471 -0.877,-1.71701 -1.02308,-0.32477 1.22354,1.28252 -0.70378,0.6998 -1.39618,0.0943 -2.12704,-1.01473 1.82087,1.48267 1.56794,1.89914 -3.64264,0.51505 1.37198,0.93329 0.38106,1.17339 -0.0206,3.4684 -0.23567,1.72023 0.92125,2.99885 1.53527,1.7941 0.73546,1.70116 -0.58073,0.47052 -0.44164,-0.9849 -0.27441,0.99514 -0.88495,-0.40536 0.41182,2.29317 -1.54341,0.90879 -0.92966,-0.57694 -2.05052,-3.79656 -0.36247,2.11023 -1.14508,-0.21993 0.74522,1.6781 -1.39385,4.58722 1.36206,0.39423 -0.30245,2.36161 -0.93929,0.92603 -1.14023,0.16098 -0.74543,-0.52392 -2.12128,1.85897 1.86556,0.85321 -0.80021,1.14231 0.18033,4.44473 1.65215,-0.68545 0.77174,0.8328 -1.15671,6.55648 -2.41476,3.42842 0.0435,4.58304 -0.73438,1.04048 -1.29759,0.61766 -0.50475,1.28659 0.23309,5.50224 -1.55009,2.58725 0.56634,0.60099 1.13267,-1.55732 0.78806,-0.2598 -0.38993,4.53472 -1.61933,5.04907 v 0"
       clip-path="url(#pdcfac218a3)"
       style="fill:none;stroke:#000000;stroke-width:2"
       id="path672" />
    <path
       d="m 483.0246,115.99999 -4.00833,2.97393 -3.41121,1.08367 -3.16549,-0.32685 -0.471,-2.65347 3.00532,-0.0216 -0.10205,-1.21181 1.74285,0.15724 -2.17765,-2.43829 -2.20641,-0.56046 -0.53532,-1.4023"
       clip-path="url(#pdcfac218a3)"
       style="fill:none;stroke:#000000;stroke-width:2"
       id="path674" />
    <path
       d="m 836.31589,279.60561 0.28322,1.32286 0.19052,-1.20856 0.41076,-0.1143"
       clip-path="url(#pdcfac218a3)"
       style="fill:none;stroke:#000000;stroke-width:2"
       id="path676" />
    <path
       d="m 470.8108,111.6 -1.03301,0.30375 -0.35848,-0.30375"
       clip-path="url(#pdcfac218a3)"
       style="fill:none;stroke:#000000;stroke-width:2"
       id="path678" />
    <path
       d="m 838.59188,279.60561 1.59537,1.62904 -3.40042,0.12396 -0.41306,1.41212 1.2392,0.0984 -0.47934,1.16082 1.45586,0.57799 -0.10293,3.44736 -5.56927,0.1622 -3.06655,-1.24389 -0.64044,-2.13162 1.33036,-2.31116 1.53748,-0.13527 -1.44468,-0.53033 -2.24469,-2.25961"
       clip-path="url(#pdcfac218a3)"
       style="fill:none;stroke:#000000;stroke-width:2"
       id="path680" />
    <path
       d="m 479.62242,111.6 1.82008,1.72183 -0.11606,1.1097 1.69816,1.56846"
       clip-path="url(#pdcfac218a3)"
       style="fill:none;stroke:#000000;stroke-width:2"
       id="path682" />
    <path
       d="m 480.47823,166.39844 -1.17417,1.56682 0.35777,0.81104 -2.5493,2.09337 -3.20653,1.23145 -0.73785,-0.70711 4.38435,-3.99742 1.11655,-3.45538 -0.49216,-1.4783 -1.81478,-1.45771 2.98086,0.075 0.35107,0.789 1.42686,0.47667 0.24586,0.96093 -0.67038,0.38193 0.18485,0.9712 -1.04532,1.52043 0.64232,0.21813"
       clip-path="url(#pdcfac218a3)"
       style="fill:none;stroke:#000000;stroke-width:2"
       id="path684" />
    <path
       d="m 486.05765,178.65035 -1.28206,0.34903 -0.1133,-0.48424 -0.49464,0.72668 -0.59635,-0.39393 1.3946,-1.23896 0.44739,0.42588 -0.19655,0.56094 0.84091,0.0546"
       clip-path="url(#pdcfac218a3)"
       style="fill:none;stroke:#000000;stroke-width:2"
       id="path686" />
    <path
       d="m 493.00213,177.69196 1.00021,-0.96725 1.31995,-0.2115 1.08526,0.29947 0.30091,1.35086 -2.44957,0.60782 -1.25676,-1.0794"
       clip-path="url(#pdcfac218a3)"
       style="fill:none;stroke:#000000;stroke-width:2"
       id="path688" />
    <path
       d="m 498.33903,177.00569 -1.18469,0.67634 -0.78859,-1.96567 1.51961,-0.7061 2.82072,-3.14246 0.68069,-0.0698 0.37926,1.0925 -0.88699,0.63682 0.16496,2.03321 -0.73311,1.40578 -1.5839,0.6431 -0.38796,-0.60375"
       clip-path="url(#pdcfac218a3)"
       style="fill:none;stroke:#000000;stroke-width:2"
       id="path690" />
    <path
       d="m 552.76397,112.73248 -1.68279,0.62786 1.58978,-1.76034"
       clip-path="url(#pdcfac218a3)"
       style="fill:none;stroke:#000000;stroke-width:2"
       id="path692" />
    <path
       d="m 755.34023,279.60561 -0.10238,0.91787 -0.84755,-0.33592 -0.0188,-0.58195"
       clip-path="url(#pdcfac218a3)"
       style="fill:none;stroke:#000000;stroke-width:2"
       id="path694" />
    <path
       d="m 754.26759,281.31955 0.93341,-0.51477 1.11996,1.18246 -0.26219,2.23569 -1.61021,0.46287 -1.20765,-3.44947 1.02668,0.0832"
       clip-path="url(#pdcfac218a3)"
       style="fill:none;stroke:#000000;stroke-width:2"
       id="path696" />
    <path
       d="m 765.56365,285.99903 1.41699,-0.15101 -0.78466,2.81514 -4.98227,-1.742 0.26124,-0.89185 4.0887,-0.0303"
       clip-path="url(#pdcfac218a3)"
       style="fill:none;stroke:#000000;stroke-width:2"
       id="path698" />
    <path
       d="m 787.08471,291.01314 -2.92147,0.68361 -2.25875,-0.64771 0.34535,-0.76104 4.83487,0.72514"
       clip-path="url(#pdcfac218a3)"
       style="fill:none;stroke:#000000;stroke-width:2"
       id="path700" />
    <path
       d="m 799.51145,290.85759 1.34454,0.0242 1.69732,-0.53409 -1.06701,1.24433 -2.82732,0.49892 -0.43613,-0.72422 1.2886,-0.50912"
       clip-path="url(#pdcfac218a3)"
       style="fill:none;stroke:#000000;stroke-width:2"
       id="path702" />
    <path
       d="m 441.25635,240.34641 -0.65273,-1.95878 -2.85011,4.78655 -1.1866,1.01393 0.38069,-2.40598 -1.5183,-2.71088 -3.08326,-1.34314 1.20292,-2.61173 -1.36486,-2.08766 0.64549,-0.98649 -0.7444,-0.64392 0.23814,-1.75343 -2.818,-0.12354 -0.69885,0.46488 -0.38716,1.6901 -2.50942,1.39322 -0.0746,-1.19902 -1.42629,0.27824 -0.73834,1.01435 -0.87479,-1.92902 -1.9505,0.59716 -0.41577,-1.94108 -1.72861,0.45561 -1.5802,-1.39049 7.45182,-5.45951 2.38527,-0.4523 1.83632,0.28549 0.38675,1.77467 5.35601,3.28643 2.4608,-0.6924 -0.14745,-1.23066 -1.43869,0.22839 -1.91372,-1.78306 2.14315,-2.11314 -0.59238,-2.60315 -2.91734,-1.58769 -1.06424,1.46245 -0.63103,-4.38386 1.25388,-0.36582 0.26348,-1.9626 -0.85246,-1.23137 -0.21588,-7.70866 -7.42955,-8.64033 -0.21589,2.19795 -1.45136,2.14249 0.85398,0.8409 -0.111,1.55645 -1.87857,2.30124 -1.44851,0.25456 -1.69605,-0.94947 -4.71182,-0.28495 -3.57749,-2.74093 -4.82202,-5.73042 -0.96579,-2.44781 0.77852,-2.26271 -2.2066,-4.44925 -0.006,-0.002"
       clip-path="url(#pdcfac218a3)"
       style="fill:none;stroke:#000000;stroke-width:2"
       id="path704" />
    <path
       d="m 980.61799,279.60561 -0.48516,1.7425 -4.05407,1.8901 -0.27628,0.92315 1.80005,1.02965 2.07344,3.18254 -0.68896,3.03049 -4.864,1.25125 -0.68761,-4.17827 1.3865,-0.29668 -1.27943,-1.49729 -2.73027,-0.62251 1.13675,-2.4741 -1.97031,-0.63835 -5.9942,1.75337 2.07961,-2.58429 -0.98607,-0.87483 -4.88503,2.85276 -1.83073,0.082 -0.95212,0.7985 2.51158,1.45089 0.0625,0.78173 1.4769,0.51117 2.09196,-1.24619 2.86445,0.72451 0.30252,0.91814 -2.64297,0.49203 -3.64564,3.10718 2.00919,0.9942 3.13726,4.91677 -0.0303,1.39434 -1.17168,0.51529 1.54538,1.60109 -0.76102,3.08594 -1.04308,0.17389 -4.60856,7.05776 -5.16363,3.5458 -3.24473,1.13311 -0.64545,-0.65835 -5.63997,2.34166 -0.63735,2.16416 -1.0345,0.12046 -0.0474,-2.28035 -2.50454,-0.65311 -4.93028,4.02627 -0.41008,1.43498 6.00173,7.91796 0.85526,3.92839 -0.25225,3.76171 -7.54508,6.6122 -0.67777,-1.38745 0.52458,-1.46303 -2.94742,-1.53892 -1.70311,-3.33676 -3.2726,-0.94245 0.27377,-1.67694 -1.64397,0.0125 -1.63413,8.94946 1.21604,0.0679 1.09287,3.85328 4.67136,4.1448 2.36534,9.24615 -1.32371,0.14603 -3.97439,-3.35745 -2.43586,-8.08174 -2.95311,-4.16434 -0.30638,1.27443 0.79315,-7.87353 -2.98678,-11.65267 -3.35113,2.55414 -2.20376,-0.68202 0.2539,-4.55695 -1.23496,-3.13786 -2.41686,-1.94256 -1.77613,-4.26696 -1.7194,-0.0809 -0.41635,1.96559 -2.31663,-0.44626 -0.26731,0.74322 -3.57116,0.39773 0.10727,1.539 -0.9965,1.21574 -2.68638,1.38844 -5.3528,5.12536 -0.003,0.96521 -3.48396,1.38354 -0.87157,11.81977 -0.96601,0.10434 -0.84967,1.6455 0.56818,0.7122 -1.70204,0.61311 -1.37773,2.09582 -1.76764,-2.02276 -5.70991,-15.16072 -1.6869,-11.13962 -4.03227,0.97932 -2.43857,-2.47347 0.89752,-0.73378 -0.5513,-0.79445 -3.55785,-2.21831 -1.99897,-2.95155 -9.10117,0.6886 -7.6538,-1.31172 -0.79613,-2.41192 -0.89347,-0.34646 -3.31727,1.29833 -5.96294,-2.70513 -2.62416,-4.38308 -3.99572,0.32693 1.55513,4.39818 2.51043,1.9528 1.22772,3.82592 0.3794,-2.48305 1.07473,0.40649 -0.37236,2.33049 0.75562,1.21484 4.13221,-0.20421 4.39431,-4.51364 0.90186,4.2736 3.51705,1.35605 2.01035,2.53577 -2.46065,3.8428 -1.23506,0.38243 -0.24637,2.68181 -4.52579,2.73172 0.009,0.8448 -5.39428,1.77495 -0.40516,1.6538 -6.51289,3.37736 -5.70133,1.51647 -1.18634,1.26239 -2.81236,0.1342 -1.63915,-5.47897 0.0834,-3.28917 -3.19254,-5.64923 -3.36,-3.71094 -1.20708,-4.85701 -1.88378,-1.19689 -4.39325,-7.44097 -0.92935,0.009 0.54184,-2.77712 -1.86902,3.57278 -2.79665,-4.24025 3.13862,7.18959 2.96411,4.40526 -0.31072,1.65828 2.50189,2.23344 1.14905,6.96246 1.73292,1.28162 1.59796,4.35127 7.5635,7.50405 -1.12373,1.40212 3.54377,2.78024 12.12808,-3.39976 -0.12309,2.9719 -2.97289,8.30282 -3.19572,5.63408 -13.95893,14.86124 -1.98026,4.59649 -0.86189,2.68642 1.30576,2.02612 -0.47316,3.57122 2.41155,4.9228 0.55458,8.38872 -1.28097,2.97686 -4.99935,3.11638 -4.89969,4.56382 -0.15772,1.46795 1.6066,3.2551 -0.19376,4.10136 -5.38386,3.19354 0.63716,0.96406 -0.84717,4.06937 -4.49212,5.41569 -3.42724,3.04226 -4.5532,2.15313 -5.98561,-0.14701 -5.52132,1.7339 -2.31287,-1.23733 -0.84417,-2.79987 0.55362,-1.76725 -5.62126,-8.74599 -1.77854,-9.93275 -4.59737,-8.32254 -0.0306,-4.77065 1.34695,-4.76102 2.11617,-3.22387 0.0983,-2.80781 -1.51394,-3.37422 0.67401,-1.30764 -2.46682,-7.66268 -5.81854,-8.58324 1.86151,-9.15853 -0.72958,-1.44494 -1.68767,-2.26524 -4.85744,1.11216 -2.93555,-4.37838 -4.59284,0.27971 -7.14947,3.12075 -5.01257,-0.99867 -5.35569,1.81102 -2.77368,-1.07846 -6.39038,-5.29207 -4.50153,-7.81395 -3.31211,-2.77807 -0.18647,-3.04122 -1.70118,-2.4104 2.16904,-2.96893 0.38495,-6.18702 v 0"
       clip-path="url(#pdcfac218a3)"
       style="fill:none;stroke:#000000;stroke-width:2"
       id="path706" />
    <path
       d="m 890.68435,347.18376 -0.2812,2.26315 -2.40615,1.11757 -1.21932,-4.85105 0.84494,-3.51101 3.06173,4.98134"
       clip-path="url(#pdcfac218a3)"
       style="fill:none;stroke:#000000;stroke-width:2"
       id="path708" />
    <path
       d="m 583.91703,342.75924 2.0663,1.68625 4.51392,-1.65768 3.11339,1.90819"
       clip-path="url(#pdcfac218a3)"
       style="fill:none;stroke:#000000;stroke-width:2"
       id="path710" />
    <path
       d="m 593.20698,323.80719 1.25628,0.18646 1.30103,1.07076 -1.8792,0.3877 -2.11198,-1.09446 1.43387,-0.55046"
       clip-path="url(#pdcfac218a3)"
       style="fill:none;stroke:#000000;stroke-width:2"
       id="path712" />
    <path
       d="m 604.14086,321.27153 3.28833,0.13721 3.04813,2.14556 -0.69325,0.84672 -3.69609,-0.46149 -1.36442,1.7268 -1.81496,-1.28576 -3.89317,-0.26559 0.16448,-0.67017 3.79887,-0.007 -0.83857,-1.6891 -1.17776,-0.32222 0.42045,-0.56977 2.75796,0.41511"
       clip-path="url(#pdcfac218a3)"
       style="fill:none;stroke:#000000;stroke-width:2"
       id="path714" />
    <path
       d="m 614.27706,323.7568 1.29071,0.59655 -2.97399,0.58656 0.15584,-1.19525 1.52744,0.0121"
       clip-path="url(#pdcfac218a3)"
       style="fill:none;stroke:#000000;stroke-width:2"
       id="path716" />
    <path
       d="m 584.43606,314.18064 7.31892,1.36751 4.99606,3.62329 2.78709,0.92517 -6.67814,0.88395 1.25141,-1.14856 -1.96415,-0.67052 -1.0875,-1.7551 -6.44045,-1.60469 0.7,-0.50633 -5.93603,1.50409 5.05279,-2.61881"
       clip-path="url(#pdcfac218a3)"
       style="fill:none;stroke:#000000;stroke-width:2"
       id="path718" />
    <path
       d="m 550.01938,140.40084 1.21942,-1.29054 1.52069,-0.19544 1.00368,1.81725 -0.2566,2.33119 -1.77596,0.19787 -1.73481,2.12414 -2.14053,-1.22939 0.98888,-3.49017 1.17523,-0.26491"
       clip-path="url(#pdcfac218a3)"
       style="fill:none;stroke:#000000;stroke-width:2"
       id="path720" />
    <path
       d="m 541.96234,144.87789 -0.14573,-1.36441 1.87114,-0.37601 -0.2276,-2.49305 2.94885,-1.26363 0.10968,-1.49265 2.20493,-3.45484 0.27501,-1.22648 1.93529,-3.22328 -1.45435,-0.32447 2.47372,-1.58611 0.25018,-0.87768 2.24356,-0.88697 1.87202,8.00215 -2.14312,-1.71004 -0.9597,3.65387 -0.52686,-1.08342 -0.9168,1.63126 -1.1169,0.72549 0.15456,-2.28177 -0.99155,0.71485 -1.07797,1.96247 -0.30143,1.96182 -1.704,1.79564 0.81199,0.0155 -2.53462,2.95905 -3.18739,1.33756 0.13709,-1.11485"
       clip-path="url(#pdcfac218a3)"
       style="fill:none;stroke:#000000;stroke-width:2"
       id="path722" />
    <path
       d="m 528.14505,167.04595 1.14014,-0.5504 1.20008,-1.92398 1.33975,0.38938 1.52177,2.92422 -0.81305,4.72268 -0.77549,-0.61787 -0.85894,2.61494 -0.85709,-1.29002 -0.40926,2.24211 -1.14707,-0.11094 -0.26076,-1.29842 1.19498,-2.1111 -0.95908,-0.91317 0.49819,-1.48837 -0.93922,-0.95508 0.12505,-1.63398"
       clip-path="url(#pdcfac218a3)"
       style="fill:none;stroke:#000000;stroke-width:2"
       id="path724" />
    <path
       d="m 499.28693,196.12357 -1.65809,-2.16894 0.0529,-2.99847 1.42749,-2.39002 0.94776,2.94449 0.74301,-2.53679 -0.55081,-0.36797 0.64521,-0.59204 1.04619,-0.14415 -1.36629,-1.73432 0.34823,-1.22038 0.76844,-0.74621 2.00304,1.62218 0.0862,-0.96283 2.47379,-0.61033 1.99545,-1.13722 1.16992,-1.28331 0.64057,1.33684 0.94843,-1.51706 1.51969,-0.98847 0.16539,0.54088 1.53676,-1.64357 0.12817,1.32691 0.72587,-1.12706 0.62931,-0.1271 0.28128,1.71724 1.20721,-1.44369 0.7928,-0.40934 -0.26014,1.88963 1.53254,-2.65476 1.43119,-1.0197 0.34218,1.21121 -1.70572,2.30061 1.20622,-0.78409 0.93361,0.5048 0.17215,-3.25079 2.9399,3.14919 0.61858,3.27327 2.545,1.50231 2.15134,4.9571 1.08753,0.73119 2.38198,0.31785 1.40066,1.64873 1.36543,-0.51486 3.14138,0.95833 0.10596,1.66783 -1.42056,1.71129 -0.009,2.30806 -4.83703,3.17821 -2.72075,0.23367 -1.62431,1.05387 -1.29918,-0.5819 -0.62207,0.4912 -2.06528,-1.26382 -0.65834,-1.39196 -2.12578,-0.78924 1.14445,2.28325 -0.57857,0.88843 -2.14981,-0.71082 0.44678,-2.20718 -1.73706,1.67777 -0.19077,1.30162 -1.65869,-1.17542 -3.78902,0.77334 -0.69392,0.56808 -0.74845,-0.23287 -1.04664,1.17487 0.0733,4.05827 -1.69566,0.61998 -0.65818,-2.72816 -1.19782,2.54526 -0.69679,-0.50184 -1.72575,-4.24143 -0.65322,-0.45919 -0.64495,0.77644 -2.16375,-3.11858 -0.80805,-0.17214 -0.75612,-1.99911 0.54403,-1.20509 -0.99042,-0.98033 1.39985,-1.79172 -0.96974,0.75304 -0.77046,-0.073"
       clip-path="url(#pdcfac218a3)"
       style="fill:none;stroke:#000000;stroke-width:2"
       id="path726" />
    <path
       d="m 500.09184,210.20978 -0.84866,-2.68813 0.59792,-0.17545 -0.97179,-1.04186 -0.48702,-1.26166 0.90349,-4.4651 2.02783,2.73563 -0.009,-0.74515 3.06703,3.72278 0.85635,2.94556 0.22516,-0.43624 0.32055,0.5212 0.88508,0.23439 2.35953,3.82694 0.77329,-0.39155 1.0738,2.26131 -0.5267,4.4133 -0.85903,-0.78387 -0.40519,-1.34968 -1.29337,-0.99077 0.64758,-1.01406 -1.49366,0.062 -1.74715,-2.89047 -1.62718,-0.73303 -0.38267,-2.29711 -0.0932,2.10701 -2.99274,-1.56602"
       clip-path="url(#pdcfac218a3)"
       style="fill:none;stroke:#000000;stroke-width:2"
       id="path728" />
    <path
       d="m 517.69552,219.38897 -0.70788,-1.18267 1.74923,-1.3401 0.776,0.4076 -0.40204,-1.62628 1.13224,-0.10764 0.70161,-1.46607 2.37495,-0.25155 0.82511,1.9592 1.54369,-2.6608 1.62312,-0.60315 0.11707,-1.40018 1.23747,0.75847 2.04421,2.52364 -2.44564,1.60424 0.22086,1.32811 1.00909,0.63814 2.29766,-1.68921 1.73577,0.0965 1.25806,0.92326 -1.87621,3.09492 3.17507,-1.23533 -0.6974,2.64818 -4.11572,3.80921 0.78932,3.46668 -0.6028,0.41642 -1.29406,-1.61141 -0.25609,-4.02916 -0.62835,-0.0831 -0.87867,-0.90081 -1.71821,-2.27482 -1.38685,-0.27544 -1.46043,2.07228 -0.44819,-0.84952 -1.80706,0.90339 0.75166,2.46312 -1.18452,4.80562 -0.62395,0.0324 -0.8105,-1.58515 -0.008,1.05642 -1.94677,-1.71754 -2.17622,-3.36807 -0.4744,-2.12784 1.15281,1.54084 1.11072,0.47665 -1.4367,-1.91663 -0.73251,-2.29343 1.84426,0.34576 1.16576,1.0288 -0.51681,-1.80397"
       clip-path="url(#pdcfac218a3)"
       style="fill:none;stroke:#000000;stroke-width:2"
       id="path730" />
    <path
       d="m 530.51526,234.06657 1.14991,-1.28014 0.83449,0.58798 0.44474,-1.15138 0.55155,1.36705 -1.21077,1.20988 1.83919,4.1398 -1.02444,-0.56315 0.16827,1.57634 -0.86716,-1.70991 -2.99267,-3.20244 1.10689,-0.97403"
       clip-path="url(#pdcfac218a3)"
       style="fill:none;stroke:#000000;stroke-width:2"
       id="path732" />
    <path
       d="m 556.8029,226.31413 0.28107,-2.5016 1.01302,-1.28343 -0.49775,2.65095 -0.79634,1.13408"
       clip-path="url(#pdcfac218a3)"
       style="fill:none;stroke:#000000;stroke-width:2"
       id="path734" />
    <path
       d="m 554.36063,211.70585 2.54473,2.48341 -0.57017,-1.16975 0.36178,-0.96555 0.5881,0.69273 0.5694,-3.60884 1.23151,0.73459 -0.28731,-1.18832 1.93241,-0.38021 1.47059,0.96295 -0.25294,1.82767 -1.58052,-0.22067 1.45042,2.25276 -0.058,0.99119 -0.78529,-1.36863 -0.40663,1.49711 0.0489,5.01196 -1.08634,-1.11145 -0.45604,0.56664 -3.70044,-4.05773 -1.54847,-2.66763 0.0744,-0.68217 0.45996,0.39994"
       clip-path="url(#pdcfac218a3)"
       style="fill:none;stroke:#000000;stroke-width:2"
       id="path736" />
    <path
       d="m 561.5664,227.53356 0.81123,-0.25187 0.1782,-2.73726 0.79111,1.78113 -0.70695,1.87954 -0.55841,0.18481 -0.51518,-0.85635"
       clip-path="url(#pdcfac218a3)"
       style="fill:none;stroke:#000000;stroke-width:2"
       id="path738" />
    <path
       d="m 501.05335,266.27583 3.61083,2.42432 -3.59424,-0.52929 -4.91957,-2.89028 4.90298,0.99525"
       clip-path="url(#pdcfac218a3)"
       style="fill:none;stroke:#000000;stroke-width:2"
       id="path740" />
    <path
       d="m 489.24286,259.32742 1.3496,-0.13678 -0.29611,1.93831 1.12079,1.77063 -2.88622,-2.0952 0.0374,-1.69921 0.67456,0.22225"
       clip-path="url(#pdcfac218a3)"
       style="fill:none;stroke:#000000;stroke-width:2"
       id="path742" />
    <path
       d="m 505.24185,226.00877 1.2297,0.71889 2.67648,2.98855 3.94143,1.72003 0.50143,0.78007 -1.23359,0.14265 1.01918,0.68124 0.18983,0.6496 -3.47575,-0.75659 -5.54999,1.14117 -0.85575,-0.83549 -2.00387,-0.28479 -1.57354,-1.40377 3.57146,-0.72114 -4.41411,-0.30929 -0.65045,-0.65485 1.46748,-0.71089 -2.60585,-0.44348 0.3521,-2.04245 1.3707,-1.08482 0.84026,0.34435 0.041,0.83521 1.2706,-0.53922 1.42508,0.89967 0.28446,-0.90989 2.56819,2.33298 -0.08,-0.73773 -1.58686,-1.82414 1.28038,0.0241"
       clip-path="url(#pdcfac218a3)"
       style="fill:none;stroke:#000000;stroke-width:2"
       id="path744" />
    <path
       d="m 509.85946,226.66833 -1.62741,-1.16589 0.12192,-0.86312 2.04566,0.14964 0.6041,0.51731 0.0856,0.85485 1.68346,0.76711 1.23751,1.60205 -0.6392,0.68846 -4.63405,-2.15322 -0.44683,-0.61831 1.56923,0.22112"
       clip-path="url(#pdcfac218a3)"
       style="fill:none;stroke:#000000;stroke-width:2"
       id="path746" />
    <path
       d="m 498.63343,214.86909 2.68125,0.89944 1.77461,1.60157 -3.22486,-0.84784 0.0843,-0.53296 -0.83195,-0.4323 -0.48332,-0.68791"
       clip-path="url(#pdcfac218a3)"
       style="fill:none;stroke:#000000;stroke-width:2"
       id="path748" />
    <path
       d="m 497.24918,216.93001 0.82522,0.28091 -0.51816,1.05236 -1.02295,-0.57885 0.71589,-0.75442"
       clip-path="url(#pdcfac218a3)"
       style="fill:none;stroke:#000000;stroke-width:2"
       id="path750" />
    <path
       d="m 492.74059,220.5781 1.19893,-2.49938 1.35148,-0.23849 0.50314,1.37658 -0.15717,0.62121 -2.02816,1.12749 -0.86822,-0.38741"
       clip-path="url(#pdcfac218a3)"
       style="fill:none;stroke:#000000;stroke-width:2"
       id="path752" />
    <path
       d="m 452.81587,228.78691 1.37181,0.43784 -2.58678,0.77713"
       clip-path="url(#pdcfac218a3)"
       style="fill:none;stroke:#000000;stroke-width:2"
       id="path754" />
    <path
       d="m 447.76209,242.44808 1.17038,0.15347 1.36032,0.69642 -1.32097,0.56125 -1.68531,-0.59677 0.47558,-0.81437"
       clip-path="url(#pdcfac218a3)"
       style="fill:none;stroke:#000000;stroke-width:2"
       id="path756" />
    <path
       d="m 448.28631,233.31648 1.49262,3.10822 -1.05316,1.09666 0.2448,0.4386 0.90863,-1.28159 2.26226,0.26313 0.51897,1.64977 -3.30487,0.94939 -1.45741,1.71737 -0.71427,0.3653 -2.0249,-1.17703 0.47558,-0.76272 -2.05142,-0.0596 0.0692,-0.61579 0.84494,-0.65454 -1.55512,0.4184 -0.38485,0.82803 -1.30096,0.74629"
       clip-path="url(#pdcfac218a3)"
       style="fill:none;stroke:#000000;stroke-width:2"
       id="path758" />
    <path
       d="m 462.92283,252.57177 1.12808,0.65309 -3.01067,1.4773 -0.4786,-0.44482 0.15181,-0.80824 2.20938,-0.87733"
       clip-path="url(#pdcfac218a3)"
       style="fill:none;stroke:#000000;stroke-width:2"
       id="path760" />
    <path
       d="m 440.51585,316.15111 -0.18299,0.67488 -0.6287,-0.37091 0.38139,-0.3471 0.4303,0.0431"
       clip-path="url(#pdcfac218a3)"
       style="fill:none;stroke:#000000;stroke-width:2"
       id="path762" />
    <path
       d="m 445.38326,318.26672 -0.058,0.22117 -1.00034,-0.0594 0.13989,-0.24914 0.91849,0.0874"
       clip-path="url(#pdcfac218a3)"
       style="fill:none;stroke:#000000;stroke-width:2"
       id="path764" />
    <path
       d="m 592.62462,347.83372 -1.02221,-1.7977 0.46121,-0.57906 -1.75139,-1.46555 -2.35647,1.51056 0.70744,1.62867 -0.7793,0.59925 -2.42704,-1.81728 -3.33608,-0.73242 -2.24924,-3.15897 -0.48966,-0.38539 -0.25251,1.14311 -1.02644,-0.81229 -0.0966,-2.48756 -3.65123,-3.9028 0.3343,-0.82712 -6.98717,-1.34218 -6.45748,-4.80973 -3.4829,1.15373 -12.96173,-5.53142 -3.71862,-3.42723 -0.44495,-1.00298 0.86911,-2.02382 -1.42412,-2.747 -6.03231,-5.61823 -0.0587,-1.70106 -2.05357,-1.40921 -0.46535,-1.35878 -2.9629,-2.11415 -1.71821,-4.21391 -3.03862,-1.17784 0.19143,3.08322 5.70736,6.75889 1.79475,4.68392 0.90012,0.0661 1.38038,2.16925 -1.11631,0.73204 -4.01466,-3.8455 -0.22154,-2.52549 -5.14178,-3.35012 0.90495,-0.0365 0.76228,-1.59653 -2.53247,-1.90104 -3.31771,-6.5511 -2.2848,-1.79856 -3.92567,-1.05466 -7.04727,-9.95889 -0.16665,-2.69482"
       clip-path="url(#pdcfac218a3)"
       style="fill:none;stroke:#000000;stroke-width:2"
       id="path766" />
    <path
       d="m 505.62429,279.60557 -0.40107,-1.35905 0.04,-4.55722 -2.38601,-4.44268 2.62873,0.24222 1.31039,1.58014 -1.28633,-3.19242 -7.90018,-3.08906 -1.09024,-1.50052 0.0485,-1.04289 -1.98929,-0.72461 -0.43096,-1.37469 -4.04141,-3.3151 -0.47641,-1.49949 -1.75634,-1.39389 -0.73197,-1.63092 -3.20756,-0.15419 -3.82266,-2.29706 -8.10592,-2.34193 -1.38866,0.36855 -0.10992,1.2082 -4.92618,1.42786 1.36903,-2.728 1.41531,-0.53604 -0.16292,-0.43721 -5.28897,3.36394 0.54522,0.84192 -1.69529,1.24366 -3.20588,1.25034 -4.01648,2.46136 -10.32791,2.72768 12.65244,-5.44324 2.01575,-2.33365 -2.93778,0.85682 -0.9874,-1.12072 -2.38924,0.69222 1.1136,-1.66817 -0.39562,-0.61857 -1.75818,0.333 -0.99509,-1.23337 0.65999,-0.98624 -0.36946,-0.74287 1.12253,-1.00356 2.52861,-1.87351 1.49873,0.15217 3.1624,-1.23793 -0.11839,-1.11698 1.14091,-0.67761 -4.58997,0.60008 -1.19257,-0.421 -0.42271,-1.7291 4.56328,-1.59732 h 0.76614 l -0.68996,0.88027 2.04885,-0.0685 -2.03661,-3.95965 1.12576,-0.92777 3.09539,-0.86468 2.05612,-1.70673 5.05064,-1.82002 1.1581,1.17531 8.0945,0.96564 5.53234,2.22395 1.73929,-1.29252 1.216,0.21645 2.41891,-1.22097 0.63874,0.73529 0.59076,-1.25034 2.21911,1.77994 0.80627,-1.20225 0.42718,1.34561 2.10066,-0.70582 7.26112,2.47809 -0.82626,0.87768 4.63743,-0.13863 1.54954,1.0595 0.4389,-0.89383 -1.3352,-0.75035 0.19659,-0.60573 1.54942,-0.25854 2.47308,1.38357 3.01292,0.656 2.48597,-0.23816 -0.99321,-1.10042 0.50825,-0.30918 1.84076,0.60026 1.43912,1.67188 -0.66186,-1.4089 0.74438,0.0475 -1.21672,-1.77901 -3.41626,-1.80976 -1.62023,-1.96261 -0.25443,-1.2907 2.68339,1.07049 2.94746,2.00271 0.12426,0.87156 1.85909,0.3587 1.78552,1.81131 -0.91501,-2.03646 1.13987,0.10168 1.31196,1.5166 1.19177,0.26943 -2.80374,-4.13751 -1.94505,-1.79768 0.39698,-1.99316 0.87953,-0.379 0.879,0.65749 0.9433,1.40726 0.94633,0.14853 0.85891,0.808 1.23342,2.83455 -0.25874,2.04082 3.13779,4.40013 1.30754,4.72797 1.04963,1.1383 -1.03878,0.21896 0.57389,3.38038 2.52435,3.3879 2.07326,0.28884 3.914,2.9301 1.48483,-0.34087 4.57091,-3.41316 0.26474,-3.52772 3.20097,2.4377 1.90576,0.49493 1.61147,-0.96278 -0.55197,-1.59149 -1.74704,-2.12211 -2.69465,-1.27452 -0.90075,0.29897 -0.80344,-2.822 -2.40232,-4.00291 -2.61931,-0.87509 -1.30248,0.5637 -1.8183,-2.76271 -4.29868,-2.24347 -0.21694,-4.82382 2.28049,-1.3592 0.13206,-1.96748 3.6566,1.62666 1.29058,-1.36196 -0.96126,-2.27251 -2.72238,-3.18373 5.83316,-1.61856 1.08177,0.92832 2.94108,-5.12602 1.44737,-0.16847 0.87055,-1.47537 1.91345,0.34888 3.22627,7.54944 0.0233,9.93894 5.72227,10.66033 -2.47435,-5.44179 -1.56791,-6.56458 0.82473,-1.06275 1.12755,2.03 3.06257,0.26977 0.83128,-1.88385 -0.24074,-2.94288 -1.8741,-2.37266 1.20999,0.29856 0.60315,-0.90396 3.93433,11.34893 -0.1211,1.31604 -1.39839,-0.58843 -1.37054,-3.67213 0.25645,4.85521 0.5435,-0.037 1.86115,6.59038 0.97853,1.51196 1.24125,1.03992 0.65116,-0.5399 v 0"
       clip-path="url(#pdcfac218a3)"
       style="fill:none;stroke:#000000;stroke-width:2"
       id="path768" />
    <path
       d="m 606.71092,279.60561 0.69174,0.49375 -6.99085,1.16841 3.29476,0.002 -3.74712,0.29862 -1.78033,3.06122 -1.16111,-0.95318 0.87982,1.87317 -1.64928,2.06385 0.40731,-1.25579 -1.17221,-2.08783 0.0386,1.83433 -1.23329,-0.27119 1.28502,0.55785 1.07174,4.17312 -6.22214,3.72591 -4.24797,3.80753 0.0421,2.65306 2.3468,6.09153 -0.60574,3.30094 -1.47675,0.01 -1.00406,-1.32438 -2.1379,-3.948 0.38314,-1.28432 -1.97795,-2.65723 -2.61198,0.57271 -2.41027,-1.45289 -5.96203,0.45533 0.34647,1.90946 -8.28863,-1.05977 -5.12534,2.70074 -1.44849,1.8007 0.42932,2.96327 -1.36711,6.8578 3.68022,7.42027 2.75372,1.42144 5.63346,-1.52115 1.1873,-0.84547 0.92077,-3.5321 6.02343,-1.11119 0.38451,1.41844 -1.85046,5.35105 -0.86399,-0.49965 -0.10342,4.1162 -1.07371,1.35426 7.36778,-0.22896 2.937,1.53009 0.42609,2.03431 -1.25695,6.27362 2.44406,3.89219"
       clip-path="url(#pdcfac218a3)"
       style="fill:none;stroke:#000000;stroke-width:2"
       id="path770" />
    <path
       d="m 447.91473,320.51835 1.1102,1.17815 -1.64414,1.22676 -0.71925,-1.62796 0.39647,-1.1628 0.85672,0.38585"
       clip-path="url(#pdcfac218a3)"
       style="fill:none;stroke:#000000;stroke-width:2"
       id="path772" />
    <path
       d="m 593.61064,344.696 3.13379,-1.67126 0.36247,-2.53575 1.07063,-0.99829 2.78541,-0.3094 3.10002,-2.59487 1.15108,0.69424 -1.51128,1.47908 0.46931,5.06691 1.22391,-1.70174 -0.67319,-2.38896 2.32468,-0.87357 0.39585,-1.68736 3.26513,3.45248 3.67048,-0.20233 2.49658,1.23115 1.0686,-1.21563 4.54934,-0.15972 -1.58518,0.63596 0.63769,1.01765 2.9082,1.22391 0.29746,1.73309 2.92995,1.25901 1.20742,2.53286 2.44064,1.87061 5.95373,0.4718 4.96186,3.56991 1.4768,4.85015 0.99833,0.36124 0.0503,1.51086 -1.40406,1.80217 0.58063,0.65993 3.29971,0.34383 0.0673,2.19423 1.41786,-1.43645 5.44945,2.12356 0.91113,1.28234 -0.30609,1.21088 2.17063,-0.67411 6.42178,1.07156 5.14361,4.25508 3.03428,0.71668 1.61996,4.77479 -0.74337,3.58352 -6.61881,8.72986 -1.10782,10.15658 -3.13128,8.38887 -1.94799,2.09372 -4.96461,0.77029 -5.60236,3.07054 -1.58016,1.96668 -0.73362,5.45773 -9.18051,10.71347 -2.10836,1.00513 -2.38835,-0.16737 -4.12879,-1.72449 -0.12763,0.94962 2.37003,1.5455 -0.25487,1.23227 1.16647,0.77347 -1.88851,3.09904 -2.7678,0.92429 -5.79452,0.18452 0.35461,3.12956 -5.54799,0.64509 0.22888,1.44077"
       clip-path="url(#pdcfac218a3)"
       style="fill:none;stroke:#000000;stroke-width:2"
       id="path774" />
    <path
       d="m 570.00278,494.28796 -0.19688,0.11889 -0.49372,1.46916 0.51718,0.798 -0.85231,0.90454 -1.53406,-2.49048 -2.54873,0.47078 -0.85509,-2.60684 -1.24773,0.12881 -1.5595,4.02508 -1.50233,0.12538 -0.94696,-1.46869 -1.97406,-0.0503 -1.4579,-1.29888 -2.74403,2.93512 0.0987,-1.99455 -1.03365,-1.45763 -1.5937,0.68573 -0.0396,-0.5797 2.71664,-6.81279"
       clip-path="url(#pdcfac218a3)"
       style="fill:none;stroke:#000000;stroke-width:2"
       id="path776" />
    <path
       d="m 592.62462,347.83372 1.05051,2.9987 -0.33126,3.83413 0.68804,0.51978 -2.4266,2.66699 -0.7983,2.73202 -2.30607,1.34074 -1.57374,3.99733 -0.0637,2.60312 1.11813,0.95854 0.71351,-1.01575 0.40371,0.95529 -3.06264,4.54276 0.90461,2.07976 -0.60417,0.972 2.78034,2.29999 7.0028,16.02257 8.48832,5.71727 2.03374,2.05413 0.38857,2.91887 -1.3827,15.82704 -1.0916,2.36194 0.096,6.72343 -3.22621,8.49589 -0.78653,0.057 0.69156,3.63525 -1.40514,4.47867"
       clip-path="url(#pdcfac218a3)"
       style="fill:none;stroke:#000000;stroke-width:2"
       id="path778" />
    <path
       d="m 570.00278,477.53427 -2.11422,0.70304 -0.23196,1.2955 2.05171,-0.72741 -0.43607,1.51696 -3.41416,1.17562 0.58194,-2.35181 -2.75338,1.20819 -1.47186,-0.64161 -0.48676,2.88573 -1.29222,-0.91068 -1.61355,0.39409 -6.06724,5.10774"
       clip-path="url(#pdcfac218a3)"
       style="fill:none;stroke:#000000;stroke-width:2"
       id="path780" />
    <path
       d="m 551.77683,488.25603 -2.11087,6.42078 1.95116,0.0932 0.50239,2.11785 -2.07011,2.34563 -1.45431,4.49093 -0.8571,-0.23549 0.5199,-2.25665 -1.22689,-1.01346 0.19373,-1.57378 1.72126,-5.16777 2.83084,-5.22122"
       clip-path="url(#pdcfac218a3)"
       style="fill:none;stroke:#000000;stroke-width:2"
       id="path782" />
    <path
       d="m 553.4564,507.32969 1.2721,3.58939 -0.76289,1.43799 -1.10391,-2.13882 0.5947,-0.86487 -0.76473,-1.00737 0.76473,-1.01632"
       clip-path="url(#pdcfac218a3)"
       style="fill:none;stroke:#000000;stroke-width:2"
       id="path784" />
    <path
       d="m 476.46824,522.08225 -0.81292,-1.03394 1.72049,0.71136 0.0615,-1.1702 1.59669,1.23536 2.68929,1.4476 0.31186,-0.49438 1.58368,0.91812 0.77008,-1.02408 -0.10578,-0.84726 -1.72481,-0.49421 -1.2575,-1.09403 -0.63964,-2.22224 -0.35307,-0.74038 -2.08786,-1.69153 2.35197,0.42285 1.01163,-1.79632 -1.77273,-1.75965 -2.7074,-0.52763 -2.14578,-1.8632 -1.20756,-2.03658 1.08904,0.73723 2.9286,0.17556 2.22848,-1.64952 -0.55214,-1.33239 0.0105,-0.6308 0.68584,-0.3153 0.47082,0.59564 5.25393,-2.20587 9.61988,0.31485 4.2087,-1.36408 0.16999,1.78414 0.9109,-0.52499 1.47136,1.36531 3.93289,0.21015 0.90787,-0.77045 0.2319,-1.22492 -0.71573,-0.13985 1.12708,-2.65559 2.73546,0.52363 0.83005,1.25778 4.6109,-0.52423 1.42102,-0.82376 -1.64153,4.27501 -0.66413,2.99318 1.2931,-0.25637 -1.5029,3.78722 1.71246,3.75413 1.71016,0.38109 4.14297,-3.17777 2.08284,-0.26951 2.14766,-1.21925 0.79548,0.0485 3.93265,2.33732 2.40573,4.54417 -0.44629,0.74459 -1.47778,-1.45319 -0.75709,-2.74476 -1.20592,-0.15465 -1.24202,0.98784 -0.55259,-1.30919 -2.56008,-0.61837 -2.25428,3.07779 -2.64201,2.13776 -5.30244,2.61803 -2.79953,-1.09163 -2.45397,-2.28354 -0.14036,-3.44769 -2.14156,3.268 -0.84339,-1.44815 -1.44161,1.01241 -1.93541,2.45892 -3.80526,7.35168 -1.51651,0.89413 2.67988,2.01489 -0.63452,2.27192 1.30402,0.76845 1.83155,4.89917 1.93553,0.21931 -0.35171,-2.63217 2.0043,0.35294 2.98492,4.28534 1.01712,3.93259 1.75213,3.81134 1.12039,1.81212 0.69965,0.64204 0.41965,-0.40531 1.29323,1.50536 1.32671,3.08614 2.02223,2.96272 -0.76663,1.51135 1.35867,1.55178 -0.94046,1.07165 0.41805,3.13517 -0.73174,-0.40537 -3.10752,3.26545 -1.59281,-0.20856 -2.13994,-1.46116 -0.91698,1.53066 -1.86827,-0.76507 -2.71185,0.90413 -1.9218,-0.3129 -1.44186,-1.11319 -3.31647,0.41755 -3.40235,1.42555 -1.01786,2.04787 -4.41029,-2.25635 -2.52739,2.08304 -4.75908,1.55943 -6.9994,3.35279 -1.68177,-0.27601 -1.57572,-2.31529 -1.99584,-1.17708 -2.71425,0.96947 -3.85439,-0.93485 0.56673,-2.2889 0.53319,-0.79885 1.97585,-1.11247 0.24722,-0.6959 -0.87802,0.0349 1.92623,-2.09021 -0.98503,-0.73244 -0.99951,0.31398 -4.5538,3.93463 -3.56174,0.72967 -2.72791,2.01253 -4.81845,1.97395 -3.70258,0.10381 -2.70666,1.65886 0.16874,-7.27801 -0.24218,-3.35355 -2.97059,-0.69639 2.41711,-4.80163 -0.4148,-3.49266 -1.4504,-2.43332 1.4504,-2.54147 1.00286,-4.25972 -1.38294,-2.70352 0.48381,-5.28826 -0.96727,-5.50051 -1.5869,-0.299 2.58872,-1.42552 0.31117,-0.76114 -0.0692,-7.37988 1.73041,-0.61368 0.86637,-1.66409 0.86695,-2.81575 -0.55503,-1.73782 1.83971,-3.19255 1.73858,-0.91616 0.45243,-4.11911 1.53274,-1.74592 3.49088,4.06159 1.29402,2.97793 3.32789,3.68915 1.47359,0.97603 2.00192,0.6748 0.24588,-0.70697 0.77344,0.36691 0.73849,2.79307 3.20313,2.62237 2.60795,0.24357 1.69292,-0.30561 0.88212,0.53851 1.59858,-1.02204 v 0"
       clip-path="url(#pdcfac218a3)"
       style="fill:none;stroke:#000000;stroke-width:2"
       id="path786" />
    <path
       d="m 503.55265,523.30963 -0.24633,1.81132 1.37271,0.0135 -0.73907,0.6702 -1.7254,0.34701 0.14092,-1.62068 1.19717,-1.2213"
       clip-path="url(#pdcfac218a3)"
       style="fill:none;stroke:#000000;stroke-width:2"
       id="path788" />
    <path
       d="m 507.51723,529.86364 0.38645,0.94097 -1.1596,1.30686 -2.77887,0.16793 -1.7958,-2.63523 0.70445,-1.46654 0.73942,-0.0816 1.09099,1.02766 2.81296,0.73994"
       clip-path="url(#pdcfac218a3)"
       style="fill:none;stroke:#000000;stroke-width:2"
       id="path790" />
    <path
       d="m 519.6222,510.00925 0.13936,1.29175 2.99149,-1.52795 1.11098,0.59228 -4.48568,3.941 -1.35965,0.3845 -0.59324,-1.28677 0.035,-0.93768 0.69771,-0.0747 0.0349,-2.20667 0.73222,-0.53037 0.69696,0.35466"
       clip-path="url(#pdcfac218a3)"
       style="fill:none;stroke:#000000;stroke-width:2"
       id="path792" />
    <path
       d="m 509.60236,499.10312 3.9156,0.10466 -0.44914,1.01167 -3.17091,-0.0349 -0.29555,-1.08145"
       clip-path="url(#pdcfac218a3)"
       style="fill:none;stroke:#000000;stroke-width:2"
       id="path794" />
    <path
       d="m 472.8985,511.08081 -0.14012,-0.66786 1.0407,0.2813 2.02515,2.00428 -0.66377,0.24636 -2.26196,-1.86408"
       clip-path="url(#pdcfac218a3)"
       style="fill:none;stroke:#000000;stroke-width:2"
       id="path796" />
  </g>
  <g
     id="text_19"
     transform="translate(-400.76399,-110.36678)">
    <g
       id="patch_6">
      <path
         d="m 471.44062,219.60279 h 29.11875 v -48 h -29.11875 z"
         style="fill:#ffffff;fill-opacity:0.5;stroke:#ffffff;stroke-linejoin:miter;stroke-opacity:0.5"
         id="path811" />
    </g>
    <!-- N -->
    <g
       style="fill:#0096a0"
       transform="matrix(0.4,0,0,-0.4,475.44062,208.00279)"
       id="g819">
      <defs
         id="defs815">
        <path
           id="Oswald-Regular-4e"
           d="M 403,0 V 5184 H 896 L 2368,1741 v 3443 h 602 V 0 H 2509 L 1018,3539 V 0 Z"
           transform="scale(0.015625)" />
      </defs>
      <use
         xlink:href="#Oswald-Regular-4e"
         id="use817"
         x="0"
         y="0"
         width="100%"
         height="100%" />
    </g>
  </g>
  <g
     id="text_20"
     transform="translate(-400.76399,-110.36678)">
    <g
       id="patch_7">
      <path
         d="m 471.21874,387.60839 h 29.5625 v -48 h -29.5625 z"
         style="fill:#ffffff;fill-opacity:0.5;stroke:#ffffff;stroke-linejoin:miter;stroke-opacity:0.5"
         id="path822" />
    </g>
    <!-- O -->
    <g
       style="fill:#0096a0"
       transform="matrix(0.4,0,0,-0.4,475.21874,376.00839)"
       id="g830">
      <defs
         id="defs826">
        <path
           id="Oswald-Regular-4f"
           d="M 1728,-58 Q 1203,-58 889,147 576,352 441,733 307,1114 307,1626 v 1964 q 0,512 137,880 138,368 448,563 311,196 836,196 525,0 832,-199 307,-198 444,-563 138,-365 138,-877 V 1619 Q 3142,1114 3004,736 2867,358 2560,150 2253,-58 1728,-58 Z m 0,570 q 288,0 435,118 147,119 198,333 52,215 52,503 v 2272 q 0,288 -52,496 -51,208 -198,320 -147,112 -435,112 -288,0 -439,-112 -150,-112 -201,-320 -51,-208 -51,-496 V 1466 q 0,-288 51,-503 51,-214 201,-333 151,-118 439,-118 z"
           transform="scale(0.015625)" />
      </defs>
      <use
         xlink:href="#Oswald-Regular-4f"
         id="use828"
         x="0"
         y="0"
         width="100%"
         height="100%" />
    </g>
  </g>
  <g
     id="text_21"
     transform="translate(-400.76399,-110.36678)">
    <g
       id="patch_8">
      <path
         d="m 640.4056,387.60839 h 27.2 v -48 h -27.2 z"
         style="fill:#ffffff;fill-opacity:0.5;stroke:#ffffff;stroke-linejoin:miter;stroke-opacity:0.5"
         id="path833" />
    </g>
    <!-- P -->
    <g
       style="fill:#0096a0"
       transform="matrix(0.4,0,0,-0.4,644.4056,376.00839)"
       id="g841">
      <defs
         id="defs837">
        <path
           id="Oswald-Regular-50"
           d="m 403,0 v 5184 h 1287 q 467,0 745,-170 279,-169 407,-489 128,-320 128,-775 0,-409 -144,-710 -144,-301 -426,-464 -282,-163 -704,-163 H 1126 V 0 Z m 723,2931 h 333 q 314,0 493,70 179,71 256,247 77,176 77,496 0,371 -55,569 -54,199 -227,276 -173,77 -537,77 h -340 z"
           transform="scale(0.015625)" />
      </defs>
      <use
         xlink:href="#Oswald-Regular-50"
         id="use839"
         x="0"
         y="0"
         width="100%"
         height="100%" />
    </g>
  </g>
  <g
     id="text_22"
     transform="translate(-400.76399,-110.36678)">
    <g
       id="patch_9">
      <path
         d="m 807.19245,387.60839 h 29.6375 v -48 h -29.6375 z"
         style="fill:#ffffff;fill-opacity:0.5;stroke:#ffffff;stroke-linejoin:miter;stroke-opacity:0.5"
         id="path844" />
    </g>
    <!-- Q -->
    <g
       style="fill:#0096a0"
       transform="matrix(0.4,0,0,-0.4,811.19245,376.00839)"
       id="g852">
      <defs
         id="defs848">
        <path
           id="Oswald-Regular-51"
           d="m 2784,-1050 q -173,90 -343,257 -169,166 -320,365 -150,198 -271,377 -26,-7 -58,-7 -32,0 -64,0 -525,0 -839,205 -313,205 -448,586 -134,381 -134,893 v 1964 q 0,512 137,880 138,368 448,563 311,196 836,196 525,0 835,-199 311,-198 448,-563 138,-365 138,-877 V 1619 q 0,-377 -77,-688 -77,-310 -244,-531 -166,-221 -441,-336 77,-96 166,-201 90,-106 179,-195 90,-90 167,-148 z M 1728,512 q 294,0 441,118 148,119 199,333 51,215 51,503 v 2272 q 0,288 -51,496 -51,208 -199,320 -147,112 -441,112 -288,0 -439,-112 -150,-112 -201,-320 -51,-208 -51,-496 V 1466 q 0,-288 51,-503 51,-214 201,-333 151,-118 439,-118 z"
           transform="scale(0.015625)" />
      </defs>
      <use
         xlink:href="#Oswald-Regular-51"
         id="use850"
         x="0"
         y="0"
         width="100%"
         height="100%" />
    </g>
  </g>
  <g
     id="text_23"
     transform="translate(-400.76399,-110.36678)">
    <g
       id="patch_10">
      <path
         d="m 975.63556,387.60839 h 28.76254 v -48 h -28.76254 z"
         style="fill:#ffffff;fill-opacity:0.5;stroke:#ffffff;stroke-linejoin:miter;stroke-opacity:0.5"
         id="path855" />
    </g>
    <!-- R -->
    <g
       style="fill:#0096a0"
       transform="matrix(0.4,0,0,-0.4,979.63556,376.00839)"
       id="g863">
      <defs
         id="defs859">
        <path
           id="Oswald-Regular-52"
           d="m 403,0 v 5184 h 1043 q 519,0 858,-138 339,-137 502,-441 164,-304 164,-797 0,-301 -64,-548 -64,-246 -205,-416 -141,-169 -371,-246 L 3066,0 H 2368 L 1690,2432 H 1126 V 0 Z m 723,2950 h 276 q 307,0 499,77 192,77 281,262 90,186 90,519 0,454 -167,656 -166,202 -659,202 h -320 z"
           transform="scale(0.015625)" />
      </defs>
      <use
         xlink:href="#Oswald-Regular-52"
         id="use861"
         x="0"
         y="0"
         width="100%"
         height="100%" />
    </g>
  </g>
  <g
     id="text_24"
     transform="translate(-400.76399,-110.36678)">
    <g
       id="patch_11">
      <path
         d="m 472.54062,555.614 h 26.91875 v -48 h -26.91875 z"
         style="fill:#ffffff;fill-opacity:0.5;stroke:#ffffff;stroke-linejoin:miter;stroke-opacity:0.5"
         id="path866" />
    </g>
    <!-- S -->
    <g
       style="fill:#0096a0"
       transform="matrix(0.4,0,0,-0.4,476.54062,544.014)"
       id="g874">
      <defs
         id="defs870">
        <path
           id="Oswald-Regular-53"
           d="M 1626,-58 Q 1178,-58 880,134 582,326 428,665 275,1005 250,1453 l 640,173 q 19,-276 86,-532 67,-256 220,-419 154,-163 430,-163 281,0 425,157 144,157 144,451 0,352 -160,566 -160,215 -403,432 l -870,768 q -256,224 -378,490 -122,266 -122,656 0,570 326,883 327,314 890,314 308,0 541,-80 234,-80 390,-247 157,-166 250,-419 93,-253 125,-592 l -614,-166 q -20,256 -78,470 -57,215 -201,346 -144,131 -413,131 -268,0 -419,-144 -150,-144 -150,-426 0,-236 80,-390 80,-154 259,-314 l 877,-768 q 294,-256 518,-611 224,-355 224,-841 0,-384 -160,-663 Q 2547,237 2268,89 1990,-58 1626,-58 Z"
           transform="scale(0.015625)" />
      </defs>
      <use
         xlink:href="#Oswald-Regular-53"
         id="use872"
         x="0"
         y="0"
         width="100%"
         height="100%" />
    </g>
  </g>
  <g
     id="LineCollection_3"
     transform="translate(-400.76399,-110.36678)">
    <path
       d="m 402.01399,111.61678 h 18.66356 18.66355 18.66356 18.66355 18.66356 18.66356 18.66355 18.66356 18.66355 v 18.66356 18.66356 18.66355 18.66356 18.66355 18.66356 18.66356 18.66355 18.66356 H 551.32244 532.65888 513.99533 495.33177 476.66821 458.00466 439.3411 420.67755 402.01399 V 260.92523 242.26168 223.59812 204.93456 186.27101 167.60745 148.9439 130.28034 111.61678"
       clip-path="url(#pdcfac218a3)"
       style="fill:none;stroke:#0096a0;stroke-width:2.5"
       id="path877" />
  </g>
  <g
     id="LineCollection_4"
     transform="translate(-400.76399,-110.36678)">
    <path
       d="m 402.01399,279.62239 h 18.66356 18.66355 18.66356 18.66355 18.66356 18.66356 18.66355 18.66356 18.66355 v 18.66356 18.66355 18.66356 18.66355 18.66356 18.66356 18.66355 18.66356 18.66355 H 551.32244 532.65888 513.99533 495.33177 476.66821 458.00466 439.3411 420.67755 402.01399 V 428.93084 410.26728 391.60373 372.94017 354.27661 335.61306 316.9495 298.28595 279.62239"
       clip-path="url(#pdcfac218a3)"
       style="fill:none;stroke:#0096a0;stroke-width:2.5"
       id="path880" />
  </g>
  <g
     id="LineCollection_5"
     transform="translate(-400.76399,-110.36678)">
    <path
       d="m 570.01959,279.62239 h 18.66356 18.66356 18.66355 18.66356 18.66355 18.66356 18.66356 18.66355 18.66356 v 18.66356 18.66355 18.66356 18.66355 18.66356 18.66356 18.66355 18.66356 18.66355 H 719.32804 700.66449 682.00093 663.33737 644.67382 626.01026 607.34671 588.68315 570.01959 V 428.93084 410.26728 391.60373 372.94017 354.27661 335.61306 316.9495 298.28595 279.62239"
       clip-path="url(#pdcfac218a3)"
       style="fill:none;stroke:#0096a0;stroke-width:2.5"
       id="path883" />
  </g>
  <g
     id="LineCollection_6"
     transform="translate(-400.76399,-110.36678)">
    <path
       d="m 738.0252,279.62239 h 18.66356 18.66355 18.66356 18.66356 18.66355 18.66356 18.66355 18.66356 18.66355 v 18.66356 18.66355 18.66356 18.66355 18.66356 18.66356 18.66355 18.66356 18.66355 H 887.33365 868.67009 850.00654 831.34298 812.67943 794.01587 775.35231 756.68876 738.0252 V 428.93084 410.26728 391.60373 372.94017 354.27661 335.61306 316.9495 298.28595 279.62239"
       clip-path="url(#pdcfac218a3)"
       style="fill:none;stroke:#0096a0;stroke-width:2.5"
       id="path886" />
  </g>
  <g
     id="LineCollection_7"
     transform="translate(-400.76399,-110.36678)">
    <path
       d="m 906.03081,279.62239 h 18.66355 18.66356 18.66355 18.66356 18.66356 18.66351 18.6636 18.6636 18.6635 v 18.66356 18.66355 18.66356 18.66355 18.66356 18.66356 18.66355 18.66356 18.66355 h -18.6635 -18.6636 -18.6636 -18.66351 -18.66356 -18.66356 -18.66355 -18.66356 -18.66355 V 428.93084 410.26728 391.60373 372.94017 354.27661 335.61306 316.9495 298.28595 279.62239"
       clip-path="url(#pdcfac218a3)"
       style="fill:none;stroke:#0096a0;stroke-width:2.5"
       id="path889" />
  </g>
  <g
     id="LineCollection_8"
     transform="translate(-400.76399,-110.36678)">
    <path
       d="m 402.01399,447.62799 h 18.66356 18.66355 18.66356 18.66355 18.66356 18.66356 18.66355 18.66356 18.66355 v 18.66356 18.66356 18.66355 18.66356 18.66356 18.66355 18.66356 18.66355 V 615.6 H 551.32244 532.65888 513.99533 495.33177 476.66821 458.00466 439.3411 420.67755 402.01399 v -18.66356 -18.66355 -18.66356 -18.66355 -18.66356 -18.66356 -18.66355 -18.66356 -18.66356"
       clip-path="url(#pdcfac218a3)"
       style="fill:none;stroke:#0096a0;stroke-width:2.5"
       id="path892" />
  </g>
  <defs
     id="defs900">
    <clipPath
       id="pdcfac218a3">
      <rect
         x="368.39691"
         y="86.400002"
         width="739.20618"
         height="554.40002"
         id="rect897" />
    </clipPath>
  </defs>
  <path
     style="fill:none;fill-opacity:1;stroke:#bfbfbf;stroke-width:1.875;stroke-linecap:butt;stroke-linejoin:miter;stroke-miterlimit:4;stroke-dasharray:none;stroke-opacity:1"
     d="m 409.89691,108.33829 h 27.29242"
     id="path4359" />
  <path
     style="fill:none;fill-opacity:1;stroke:#0096a0;stroke-width:1.875;stroke-linecap:butt;stroke-linejoin:miter;stroke-miterlimit:4;stroke-dasharray:none;stroke-opacity:1"
     d="m 409.89691,132.93197 h 27.29242"
     id="path4359-2" />
  <text
     xml:space="preserve"
     style="font-style:normal;font-variant:normal;font-weight:300;font-stretch:normal;font-size:16px;line-height:1.15;font-family:Oswald;-inkscape-font-specification:'Oswald, Light';font-variant-ligatures:normal;font-variant-caps:normal;font-variant-numeric:normal;font-variant-east-asian:normal;letter-spacing:0px;stroke-width:0.75;stroke-linecap:butt;stroke-linejoin:round"
     x="446.7854"
     y="113.2983"
     id="text4383"><tspan
       sodipodi:role="line"
       id="tspan4381"
       x="446.7854"
       y="113.2983"
       style="font-style:normal;font-variant:normal;font-weight:300;font-stretch:normal;font-size:16px;font-family:Oswald;-inkscape-font-specification:'Oswald, Light';font-variant-ligatures:normal;font-variant-caps:normal;font-variant-numeric:normal;font-variant-east-asian:normal;stroke-width:0.75">projections of meridians and paralels</tspan></text>
  <text
     xml:space="preserve"
     style="font-style:normal;font-variant:normal;font-weight:300;font-stretch:normal;font-size:16px;line-height:1.15;font-family:Oswald;-inkscape-font-specification:'Oswald, Light';font-variant-ligatures:normal;font-variant-caps:normal;font-variant-numeric:normal;font-variant-east-asian:normal;letter-spacing:0px;stroke-width:0.75;stroke-linecap:butt;stroke-linejoin:round"
     x="446.7854"
     y="137.95598"
     id="text4387"><tspan
       sodipodi:role="line"
       id="tspan4385"
       x="446.7854"
       y="137.95598"
       style="font-style:normal;font-variant:normal;font-weight:300;font-stretch:normal;font-size:16px;font-family:Oswald;-inkscape-font-specification:'Oswald, Light';font-variant-ligatures:normal;font-variant-caps:normal;font-variant-numeric:normal;font-variant-east-asian:normal;stroke-width:0.75">projections of DGGS cell boundaries</tspan></text>
</svg>
